<?xml version="1.0" standalone="no"?>
<!DOCTYPE svg PUBLIC "-//W3C//DTD SVG 1.1//EN" "http://www.w3.org/Graphics/SVG/1.1/DTD/svg11.dtd" >
<svg xmlns="http://www.w3.org/2000/svg" xmlns:xlink="http://www.w3.org/1999/xlink" version="1.1">
<metadata>
Created by FontForge 20161003 at Tue Feb 20 12:10:58 2018
 By www-data
Hans Kendrick is a trademark of Hanken Design Co.. (c)2012-2015
</metadata>
<defs>
<font id="HansKendrickLight" horiz-adv-x="637" >
  <font-face 
    font-family="HansKendrickLight"
    font-weight="400"
    font-stretch="normal"
    units-per-em="1000"
    panose-1="0 0 5 0 0 0 0 0 0 0"
    ascent="800"
    descent="-200"
    x-height="470"
    cap-height="750"
    bbox="-184 -245 1185 997"
    underline-thickness="50"
    underline-position="-150"
    unicode-range="U+0020-FB02"
  />
<missing-glyph horiz-adv-x="300" 
 />
    <glyph glyph-name=".notdef" horiz-adv-x="300" 
 />
    <glyph glyph-name=".null" horiz-adv-x="0" 
 />
    <glyph glyph-name="nonmarkingreturn" horiz-adv-x="333" 
 />
    <glyph glyph-name="space" unicode=" " horiz-adv-x="300" 
 />
    <glyph glyph-name="exclam" unicode="!" horiz-adv-x="314" 
d="M137 197v563h40v-563h-40zM157 0q-18 0 -30 12t-12 30q0 17 12 29.5t30 12.5q17 0 29.5 -12.5t12.5 -29.5q0 -18 -12.5 -30t-29.5 -12z" />
    <glyph glyph-name="quotedbl" unicode="&#x22;" horiz-adv-x="407" 
d="M110 512l-30 238h53l-10 -238h-13zM284 512l-10 238h53l-30 -238h-13z" />
    <glyph glyph-name="numbersign" unicode="#" horiz-adv-x="745" 
d="M172 0l24 171h-114l5 35h114l40 274h-114l5 34h112l25 172h47l-24 -172h210l24 172h47l-24 -172h114l-5 -34h-114l-38 -274h113l-5 -35h-113l-25 -171h-47l24 171h-210l-24 -171h-47zM248 206h210l39 274h-210z" />
    <glyph glyph-name="dollar" unicode="$" horiz-adv-x="593" 
d="M284 -90v80q-74 2 -132.5 34t-86.5 85l40 17q24 -41 71 -66t108 -28v330q-47 19 -75.5 33.5t-58 37t-43.5 53t-14 70.5q0 75 53 133t138 71v80h32v-80q102 -12 157 -88l-41 -17q-40 48 -116 63v-324q98 -39 147 -82t49 -120q0 -74 -55 -127.5t-141 -72.5v-82h-32z
M284 406v312q-68 -17 -107.5 -61t-39.5 -101q0 -51 36.5 -85t110.5 -65zM316 36q69 18 110.5 58.5t41.5 97.5q0 29 -10.5 52.5t-33.5 42.5t-46.5 32.5t-61.5 30.5v-314z" />
    <glyph glyph-name="percent" unicode="%" horiz-adv-x="719" 
d="M219 485q-57 0 -98 40.5t-41 97.5q0 56 41 96.5t98 40.5q58 0 99 -40.5t41 -96.5q0 -57 -41 -97.5t-99 -40.5zM93 0l482 750h50l-482 -750h-50zM219 519q44 0 75 30.5t31 73.5t-31 73.5t-75 30.5q-43 0 -74 -30.5t-31 -73.5t30.5 -73.5t74.5 -30.5zM500 -10
q-58 0 -99.5 40.5t-41.5 96.5q0 57 41.5 97.5t99.5 40.5q57 0 98 -40.5t41 -97.5q0 -56 -41.5 -96.5t-97.5 -40.5zM500 23q42 0 73.5 30.5t31.5 73.5t-31.5 73.5t-73.5 30.5q-45 0 -76 -30t-31 -74t31 -74t76 -30z" />
    <glyph glyph-name="ampersand" unicode="&#x26;" horiz-adv-x="712" 
d="M280 -13q-99 0 -170 69q-70 70 -70 169t70 169l64 63l-11 12q-49 48 -49 116.5t49 116.5q48 48 116.5 48t117.5 -48q46 -46 48 -110t-41 -115l-31 30q30 38 28.5 84.5t-35.5 79.5q-35 36 -86 36t-87 -36q-35 -35 -35 -85.5t35 -86.5l320 -318l122 121l31 -31l-122 -120
l120 -119l-31 -31l-120 119l-64 -64q-69 -69 -169 -69zM141 87q58 -57 139 -57t139 57l64 64l-278 276l-64 -64q-58 -57 -58 -138t58 -138z" />
    <glyph glyph-name="quotesingle" unicode="'" horiz-adv-x="237" 
d="M111 512l-20 238h53l-20 -238h-13z" />
    <glyph glyph-name="parenleft" unicode="(" horiz-adv-x="475" 
d="M365 -241q-60 5 -107.5 44t-74.5 94t-44 125t-23 127.5t-6 110.5t6 110t23 127t44 125.5t74.5 95t107.5 44.5v-41q-49 -6 -88 -47t-61 -95.5t-36.5 -119.5t-19.5 -114t-5 -85t5 -85t19.5 -114t36.5 -119.5t61 -95t88 -46.5v-41z" />
    <glyph glyph-name="parenright" unicode=")" horiz-adv-x="475" 
d="M110 -241v41q49 6 88 46.5t61 95t36.5 119.5t19.5 114t5 85t-5 85t-19.5 114t-36.5 119.5t-61 95.5t-88 47v41q60 -5 107.5 -44.5t74.5 -95t44 -125.5t23 -127t6 -110t-6 -110.5t-23 -127.5t-44 -125t-74.5 -94t-107.5 -44z" />
    <glyph glyph-name="asterisk" unicode="*" horiz-adv-x="360" 
d="M145 547l-40 23l50 69l-85 -8v45l85 -8l-50 69l40 23l35 -77l35 77l40 -23l-50 -69l85 8v-45l-85 8l50 -69l-40 -23l-35 77z" />
    <glyph glyph-name="plus" unicode="+" horiz-adv-x="698" 
d="M333 -26v249h-263v30h263v249h32v-249h263v-30h-263v-249h-32z" />
    <glyph glyph-name="comma" unicode="," horiz-adv-x="254" 
d="M58 -117l44 218h64l-80 -218h-28z" />
    <glyph glyph-name="hyphen" unicode="-" horiz-adv-x="418" 
d="M60 223v30h298v-30h-298z" />
    <glyph glyph-name="period" unicode="." horiz-adv-x="274" 
d="M137 -10q-18 0 -30 12t-12 30q0 17 12 29.5t30 12.5q17 0 29.5 -12.5t12.5 -29.5q0 -18 -12.5 -30t-29.5 -12z" />
    <glyph glyph-name="slash" unicode="/" horiz-adv-x="651" 
d="M39 -245l523 1005h38l-523 -1005h-38z" />
    <glyph glyph-name="zero" unicode="0" horiz-adv-x="692" 
d="M346 -12q-83 0 -145.5 60t-91.5 146.5t-29 182.5q0 64 16 130t46.5 125t84 96.5t119.5 37.5t119.5 -37.5t84 -96.5t46.5 -125t16 -130q0 -96 -29 -182.5t-91.5 -146.5t-145.5 -60zM346 28q49 0 88 24t63 61t40 84.5t22.5 91.5t6.5 86q0 53 -10.5 109t-33.5 113t-68.5 93
t-107.5 36q-61 0 -106.5 -36t-69 -92.5t-34 -112t-10.5 -107.5q0 -56 10.5 -112.5t34 -112t69 -90.5t106.5 -35z" />
    <glyph glyph-name="one" unicode="1" horiz-adv-x="409" 
d="M210 0v710h-70v40h114v-750h-44z" />
    <glyph glyph-name="two" unicode="2" horiz-adv-x="632" 
d="M98 0l288 330q69 79 90 117q29 52 29 103q0 75 -52 125.5t-128 50.5t-124.5 -47.5t-55.5 -120.5h-47q9 92 70 150t154 58q96 0 162.5 -61.5t66.5 -154.5q0 -74 -50 -147q-14 -21 -30.5 -41t-42 -49t-33.5 -38l-205 -235h360v-40h-452z" />
    <glyph glyph-name="three" unicode="3" horiz-adv-x="633" 
d="M299 -12q-83 0 -149 53t-80 129h43q16 -63 68 -102.5t118 -39.5q78 0 135 53.5t57 131.5q0 79 -57 130.5t-135 51.5h-5v39h5q71 0 111.5 44t40.5 102q0 60 -43.5 103t-108.5 43q-57 0 -100 -37.5t-54 -93.5h-45q12 73 69.5 122t129.5 49q80 0 138 -55t58 -131
q0 -93 -101 -164q140 -77 140 -203q0 -91 -69.5 -158t-165.5 -67z" />
    <glyph glyph-name="four" unicode="4" horiz-adv-x="673" 
d="M450 0v154h-406l446 594v-554h102v-40h-102v-154h-40zM122 194h328v437z" />
    <glyph glyph-name="five" unicode="5" horiz-adv-x="633" 
d="M296 -12q-64 0 -119.5 28.5t-91.5 79.5l34 25q30 -42 78.5 -67.5t101.5 -25.5q83 0 145 57t62 145q0 86 -61 143.5t-146 57.5q-41 0 -87 -13l-32 25l78 307h277v-40h-241l-64 -252l15 3q29 8 68 8q102 0 170.5 -70.5t68.5 -171.5q0 -105 -73 -172t-183 -67z" />
    <glyph glyph-name="six" unicode="6" horiz-adv-x="700" 
d="M350 -12q-105 0 -177.5 69.5t-72.5 170.5q0 77 64 169l250 353h48l-224 -312q56 31 125 31q98 0 167.5 -71t69.5 -170q0 -100 -73.5 -170t-176.5 -70zM350 28q85 0 144.5 58.5t59.5 141.5q0 84 -59.5 142.5t-144.5 58.5t-144.5 -58.5t-59.5 -142.5q0 -83 59.5 -141.5
t144.5 -58.5z" />
    <glyph glyph-name="seven" unicode="7" horiz-adv-x="583" 
d="M70 0l443 710h-440v40h510l-467 -750h-46z" />
    <glyph glyph-name="eight" unicode="8" horiz-adv-x="628" 
d="M314 -12q-94 0 -164 67t-70 158q0 125 139 203q-101 70 -101 164q0 76 58 131t138 55t138 -55t58 -131q0 -93 -102 -164q140 -76 140 -203q0 -91 -70 -158t-164 -67zM314 434q62 0 107 42.5t45 103.5q0 60 -45 103t-107 43q-63 0 -107.5 -43t-44.5 -103
q0 -61 44.5 -103.5t107.5 -42.5zM314 28q80 0 135.5 53.5t55.5 131.5t-55.5 130t-135.5 52t-135.5 -52t-55.5 -130t55.5 -131.5t135.5 -53.5z" />
    <glyph glyph-name="nine" unicode="9" horiz-adv-x="700" 
d="M237 0l224 312q-56 -31 -125 -31q-98 0 -167.5 71t-69.5 170q0 100 73.5 170t176.5 70q105 0 177.5 -69.5t72.5 -170.5q0 -77 -64 -169l-250 -353h-48zM349 321q85 0 144.5 58.5t59.5 142.5q0 83 -59.5 141.5t-144.5 58.5t-144.5 -58.5t-59.5 -141.5q0 -84 59.5 -142.5
t144.5 -58.5z" />
    <glyph glyph-name="colon" unicode=":" horiz-adv-x="274" 
d="M137 396q-18 0 -30 12.5t-12 29.5t12 29.5t30 12.5q17 0 29.5 -12.5t12.5 -29.5t-12.5 -29.5t-29.5 -12.5zM137 -10q-18 0 -30 12t-12 30q0 17 12 29.5t30 12.5q17 0 29.5 -12.5t12.5 -29.5q0 -18 -12.5 -30t-29.5 -12z" />
    <glyph glyph-name="semicolon" unicode=";" horiz-adv-x="254" 
d="M128 396q-18 0 -30 12.5t-12 29.5t12 29.5t30 12.5q17 0 29.5 -12.5t12.5 -29.5t-12.5 -29.5t-29.5 -12.5zM58 -117l44 218h64l-80 -218h-28z" />
    <glyph glyph-name="less" unicode="&#x3c;" horiz-adv-x="575" 
d="M479 5l-409 215v48l409 198l19 -38l-380 -185l381 -200z" />
    <glyph glyph-name="equal" unicode="=" horiz-adv-x="575" 
d="M70 316v34h435v-34h-435zM70 119v34h435v-34h-435z" />
    <glyph glyph-name="greater" unicode="&#x3e;" horiz-adv-x="575" 
d="M95 5l-20 38l380 200l-379 185l19 38l408 -198v-48z" />
    <glyph glyph-name="question" unicode="?" horiz-adv-x="501" 
d="M229 187v90q0 37 20.5 66t63.5 68q30 27 47 45.5t32 48.5t15 61q0 63 -46 107.5t-111 44.5q-60 0 -105 -39.5t-52 -96.5h-43q6 75 63.5 126.5t136.5 51.5q82 0 141 -57t59 -137q0 -45 -22 -80.5t-62 -73.5q-11 -11 -33 -31q-19 -19 -29.5 -31.5t-21 -33t-10.5 -40.5v-89
h-43zM250 -10q-15 0 -24.5 9.5t-9.5 23.5q0 15 9.5 24.5t24.5 9.5q16 0 25.5 -9.5t9.5 -24.5q0 -14 -9.5 -23.5t-25.5 -9.5z" />
    <glyph glyph-name="at" unicode="@" horiz-adv-x="541" 
d="M321 0q-99 0 -170 70.5t-71 169.5t71 169.5t170 70.5q56 0 98 -28t42 -79v-247h-40v27q-36 -37 -84 -37q-52 0 -89 36.5t-37 87.5t37 87.5t89 36.5q49 0 84 -38v47q0 35 -31.5 50.5t-68.5 15.5q-83 0 -142 -58.5t-59 -140.5t59 -141t142 -59h135v-40h-135zM337 156
q35 0 59.5 24.5t24.5 59.5t-24.5 59.5t-59.5 24.5t-59.5 -24.5t-24.5 -59.5t24.5 -59.5t59.5 -24.5z" />
    <glyph glyph-name="A" unicode="A" horiz-adv-x="652" 
d="M5 0l322 760l321 -760h-47l-71 169h-406l-72 -169h-47zM139 205h376l-188 454z" />
    <glyph glyph-name="B" unicode="B" horiz-adv-x="590" 
d="M90 0v750h232q85 0 146 -59.5t61 -141.5q0 -51 -27 -97t-85 -70q65 -22 99 -74t34 -107q0 -83 -60.5 -142t-145.5 -59h-254zM131 400h215q66 0 103 42.5t37 106.5q0 66 -48 112.5t-116 46.5h-191v-308zM131 42h213q68 0 115.5 46.5t47.5 112.5q0 65 -47.5 114t-113.5 49
h-215v-322z" />
    <glyph glyph-name="C" unicode="C" horiz-adv-x="761" 
d="M458 -10q-160 0 -274 113t-114 272t114 272t274 113q158 0 265 -104l-30 -28q-102 90 -235 90q-143 0 -244.5 -100.5t-101.5 -242.5t101.5 -242.5t244.5 -100.5q127 0 235 90l31 -28q-109 -104 -266 -104z" />
    <glyph glyph-name="D" unicode="D" horiz-adv-x="715" 
d="M90 0v750h162q180 0 286.5 -99t106.5 -274t-107 -276t-286 -101h-162zM130 42h122q161 0 256 88.5t95 246.5t-95 244.5t-256 86.5h-122v-666z" />
    <glyph glyph-name="E" unicode="E" horiz-adv-x="542" 
d="M90 0v750h382v-42h-342v-312h300v-42h-300v-312h342v-42h-382z" />
    <glyph glyph-name="F" unicode="F" horiz-adv-x="502" 
d="M90 0v750h382v-42h-342v-312h311v-42h-311v-354h-40z" />
    <glyph glyph-name="G" unicode="G" horiz-adv-x="830" 
d="M468 -10q-160 0 -274 113t-114 272t114 272t274 113q142 0 242 -84l-28 -31q-95 73 -214 73q-143 0 -244.5 -100.5t-101.5 -242.5t101.5 -242.5t244.5 -100.5q129 0 231 87v235h-225v42h266v-396h-41v65q-119 -75 -231 -75z" />
    <glyph glyph-name="H" unicode="H" horiz-adv-x="713" 
d="M90 0v750h40v-354h453v354h40v-750h-40v354h-453v-354h-40z" />
    <glyph glyph-name="I" unicode="I" horiz-adv-x="250" 
d="M100 0v750h49v-750h-49z" />
    <glyph glyph-name="J" unicode="J" horiz-adv-x="357" 
d="M122 -10q-47 0 -77 6v45q33 -9 77 -9q42 0 72.5 26t30.5 62v630h42v-630q0 -53 -42.5 -91.5t-102.5 -38.5z" />
    <glyph glyph-name="K" unicode="K" horiz-adv-x="605" 
d="M90 0v750h43v-374l379 374h60l-382 -375l382 -375h-60l-379 374v-374h-43z" />
    <glyph glyph-name="L" unicode="L" horiz-adv-x="446" 
d="M90 0v750h49v-708h267v-42h-316z" />
    <glyph glyph-name="M" unicode="M" horiz-adv-x="871" 
d="M90 0v769q5 -11 91 -138t170 -249l84 -121l346 499v-760h-40v632l-306 -441l-305 441v-632h-40z" />
    <glyph glyph-name="N" unicode="N" horiz-adv-x="740" 
d="M650 -15l-520 651v-636h-40v760l520 -659v649h40v-765z" />
    <glyph glyph-name="O" unicode="O" horiz-adv-x="914" 
d="M457 -10q-159 0 -273 113t-114 272t114 272t273 113t273 -113t114 -272t-114 -272t-273 -113zM457 32q142 0 243.5 100.5t101.5 242.5q0 141 -102 242t-243 101q-143 0 -244 -100.5t-101 -242.5t101.5 -242.5t243.5 -100.5z" />
    <glyph glyph-name="P" unicode="P" horiz-adv-x="554" 
d="M90 0v750h226q86 0 147 -59.5t61 -142.5t-61 -142t-147 -59h-186v-347h-40zM130 389h186q68 0 116.5 46.5t48.5 112.5q0 67 -48.5 113.5t-116.5 46.5h-186v-319z" />
    <glyph glyph-name="Q" unicode="Q" horiz-adv-x="914" 
d="M457 -10q-159 0 -273 113t-114 272t114 272t273 113t273 -113t114 -272q0 -146 -108 -267l82 -82l-30 -30l-83 83q-117 -89 -248 -89zM457 32q116 0 218 77l-103 104l30 30l104 -106q96 106 96 238q0 141 -102 242t-243 101q-143 0 -244 -100.5t-101 -242.5t101 -242.5
t244 -100.5z" />
    <glyph glyph-name="R" unicode="R" horiz-adv-x="581" 
d="M90 0v750h225q85 0 146 -59.5t61 -142.5q0 -66 -43.5 -119.5t-118.5 -77.5l181 -351h-49l-177 347h-185v-347h-40zM130 389h185q68 0 116 46.5t48 112.5t-48 113t-116 47h-185v-319z" />
    <glyph glyph-name="S" unicode="S" horiz-adv-x="543" 
d="M258 -10q-65 0 -124.5 33t-88.5 87l41 17q24 -43 72.5 -68.5t99.5 -25.5q72 0 131.5 44.5t59.5 115.5q0 53 -34.5 86t-93.5 59q-12 6 -35.5 15.5t-33.5 13.5q-87 35 -132.5 75.5t-45.5 114.5q0 84 62 143.5t148 59.5q50 0 95.5 -23t74.5 -63l-41 -17q-49 60 -129 60
q-68 0 -117 -47t-49 -113q0 -53 34.5 -85t93.5 -58q4 -2 29.5 -12t39.5 -16q87 -35 132.5 -76t45.5 -117q0 -86 -71 -144.5t-164 -58.5z" />
    <glyph glyph-name="T" unicode="T" horiz-adv-x="473" 
d="M217 0v708h-212v42h463v-42h-212v-708h-39z" />
    <glyph glyph-name="U" unicode="U" horiz-adv-x="650" 
d="M325 -10q-98 0 -169 64.5t-71 148.5v547h43v-547q0 -69 56.5 -120t140.5 -51q85 0 141 51t56 120v547h43v-547q0 -85 -70 -149t-170 -64z" />
    <glyph glyph-name="V" unicode="V" horiz-adv-x="652" 
d="M327 -10l-322 760h47l275 -659l274 659h47z" />
    <glyph glyph-name="W" unicode="W" horiz-adv-x="975" 
d="M337 -10l-357 760h46l311 -665l128 272l-181 393h46l158 -344l159 344h45l-181 -393l129 -272l311 665h45l-355 -760l-153 319z" />
    <glyph glyph-name="X" unicode="X" horiz-adv-x="564" 
d="M5 0l252 377l-249 373h51l223 -336l225 336h50l-249 -373l252 -377h-51l-227 340l-226 -340h-51z" />
    <glyph glyph-name="Y" unicode="Y" horiz-adv-x="559" 
d="M258 0v370l-253 380h51l223 -336l225 336h51l-254 -380v-370h-43z" />
    <glyph glyph-name="Z" unicode="Z" horiz-adv-x="628" 
d="M42 0l455 708h-446v42h523l-457 -708h470v-42h-545z" />
    <glyph glyph-name="bracketleft" unicode="[" horiz-adv-x="308" 
d="M70 -245v995h168v-41h-129v-913h129v-41h-168z" />
    <glyph glyph-name="backslash" unicode="\" horiz-adv-x="651" 
d="M572 -245l-523 1005h38l523 -1005h-38z" />
    <glyph glyph-name="bracketright" unicode="]" horiz-adv-x="308" 
d="M68 -245v41h131v913h-129v41h168v-995h-170z" />
    <glyph glyph-name="asciicircum" unicode="^" horiz-adv-x="438" 
d="M25 402l162 361h63l162 -361h-51l-143 343l-142 -343h-51z" />
    <glyph glyph-name="underscore" unicode="_" horiz-adv-x="698" 
d="M70 0v30h558v-30h-558z" />
    <glyph glyph-name="grave" unicode="`" horiz-adv-x="0" 
d="M-9 573l-154 177h60l115 -177h-21z" />
    <glyph glyph-name="a" unicode="a" 
d="M305 -10q-101 0 -173 72t-72 173t72 173t173 72q62 0 115 -29t87 -78v97h40v-470h-40v97q-34 -49 -87 -78t-115 -29zM305 33q83 0 142.5 59.5t59.5 142.5t-59.5 142.5t-142.5 59.5t-142.5 -59.5t-59.5 -142.5t59.5 -142.5t142.5 -59.5z" />
    <glyph glyph-name="b" unicode="b" horiz-adv-x="635" 
d="M331 -10q-62 0 -115 28.5t-87 78.5v-97h-39v750h39v-378q34 50 87 79t115 29q101 0 173 -72t72 -173t-72 -173t-173 -72zM331 32q83 0 142.5 59.5t59.5 143.5q0 83 -59.5 142.5t-142.5 59.5t-142.5 -59.5t-59.5 -142.5q0 -84 59.5 -143.5t142.5 -59.5z" />
    <glyph glyph-name="c" unicode="c" horiz-adv-x="580" 
d="M306 -10q-102 0 -174 72t-72 173t72 173t174 72q69 0 127.5 -36t90.5 -98l-39 -16q-26 49 -74.5 78t-104.5 29q-84 0 -143.5 -59.5t-59.5 -142.5t59.5 -142.5t143.5 -59.5q56 0 104.5 28.5t73.5 77.5l40 -17q-31 -60 -90.5 -96t-127.5 -36z" />
    <glyph glyph-name="d" unicode="d" 
d="M305 -10q-101 0 -173 72t-72 173t72 173t173 72q62 0 115 -29t87 -78v377h40v-750h-40v97q-34 -49 -87 -78t-115 -29zM305 33q83 0 142.5 59.5t59.5 142.5t-59.5 142.5t-142.5 59.5t-142.5 -59.5t-59.5 -142.5t59.5 -142.5t142.5 -59.5z" />
    <glyph glyph-name="e" unicode="e" horiz-adv-x="610" 
d="M305 -10q-101 0 -173 72t-72 173t72 173t173 72q97 0 167.5 -66.5t77.5 -162.5h-447v-16q0 -83 59.5 -142.5t142.5 -59.5q57 0 104.5 29t73.5 77l39 -18q-31 -59 -89.5 -95t-127.5 -36zM111 294h388q-20 62 -73.5 102.5t-120.5 40.5t-120.5 -40.5t-73.5 -102.5z" />
    <glyph glyph-name="f" unicode="f" horiz-adv-x="323" 
d="M136 0v432h-86v38h86v164q0 55 33.5 92.5t90.5 37.5q29 0 43 -14v-43q-11 15 -45 15q-38 0 -60 -25t-22 -63v-164h127v-38h-127v-432h-40z" />
    <glyph glyph-name="g" unicode="g" horiz-adv-x="640" 
d="M305 -245q-69 0 -126.5 35t-90.5 94l39 17q27 -49 73.5 -76.5t104.5 -27.5q83 0 142.5 58t59.5 140v114q-72 -109 -202 -109q-101 0 -173 70.5t-72 169.5t72 169.5t173 70.5q128 0 202 -109v99h43v-475q0 -99 -72 -169.5t-173 -70.5zM305 42q83 0 142.5 58t59.5 140
t-59 140t-143 58q-83 0 -142.5 -58t-59.5 -140t59.5 -140t142.5 -58z" />
    <glyph glyph-name="h" unicode="h" horiz-adv-x="516" 
d="M90 0v750h40v-363q54 82 153 82q73 0 120.5 -50t47.5 -124v-295h-43v295q0 58 -37.5 95t-95.5 37q-56 0 -100.5 -37.5t-44.5 -91.5v-298h-40z" />
    <glyph glyph-name="i" unicode="i" horiz-adv-x="274" 
d="M137 562q-16 0 -26.5 10.5t-10.5 26.5t10.5 26.5t26.5 10.5t26.5 -10.5t10.5 -26.5t-10.5 -26.5t-26.5 -10.5zM116 0v470h43v-470h-43z" />
    <glyph glyph-name="j" unicode="j" horiz-adv-x="274" 
d="M137 562q-16 0 -26.5 10.5t-10.5 26.5t10.5 26.5t26.5 10.5t26.5 -10.5t10.5 -26.5t-10.5 -26.5t-26.5 -10.5zM116 -243v713h43v-713h-43z" />
    <glyph glyph-name="k" unicode="k" horiz-adv-x="498" 
d="M98 0v750h41v-503l229 211h63l-243 -217l272 -241h-63l-258 233v-233h-41z" />
    <glyph glyph-name="l" unicode="l" horiz-adv-x="250" 
d="M105 0v750h40v-750h-40z" />
    <glyph glyph-name="m" unicode="m" horiz-adv-x="813" 
d="M90 0v470h40v-70q53 80 147 80q86 0 144 -92q25 42 70 67t95 25q72 0 117 -52t45 -126v-302h-39v302q0 55 -38 96.5t-92 41.5q-56 0 -98.5 -39.5t-42.5 -95.5v-305h-41v305q0 55 -36.5 95t-91.5 40t-97 -40.5t-42 -94.5v-305h-40z" />
    <glyph glyph-name="n" unicode="n" horiz-adv-x="516" 
d="M90 0v470h40v-68q27 36 67.5 57t85.5 21q74 0 121 -51.5t47 -126.5v-302h-40v302q0 56 -40 96.5t-96 40.5t-100.5 -39t-44.5 -95v-305h-40z" />
    <glyph glyph-name="o" unicode="o" horiz-adv-x="610" 
d="M305 -10q-101 0 -173 72t-72 173t72 173t173 72t173 -72t72 -173t-72 -173t-173 -72zM305 33q83 0 142.5 59.5t59.5 142.5t-59.5 142.5t-142.5 59.5t-142.5 -59.5t-59.5 -142.5t59.5 -142.5t142.5 -59.5z" />
    <glyph glyph-name="p" unicode="p" 
d="M90 -243v713h40v-97q34 49 87 78t115 29q101 0 173 -72t72 -173t-72 -173t-173 -72q-62 0 -115 29t-87 78v-340h-40zM332 33q83 0 143 59.5t60 142.5t-60 142.5t-143 59.5t-142.5 -59.5t-59.5 -142.5t59.5 -142.5t142.5 -59.5z" />
    <glyph glyph-name="q" unicode="q" 
d="M507 -243v340q-34 -49 -87 -78t-115 -29q-101 0 -173 72t-72 173t72 173t173 72q62 0 115 -29t87 -78v97h40v-713h-40zM305 33q83 0 142.5 59.5t59.5 142.5t-59.5 142.5t-142.5 59.5t-142.5 -59.5t-59.5 -142.5t59.5 -142.5t142.5 -59.5z" />
    <glyph glyph-name="r" unicode="r" horiz-adv-x="355" 
d="M95 0v469h41v-85q28 62 83.5 84t115.5 6v-42q-89 19 -144 -29.5t-55 -142.5v-260h-41z" />
    <glyph glyph-name="s" unicode="s" horiz-adv-x="383" 
d="M189 -10q-46 0 -87 23t-58 63l41 17q12 -27 42 -43.5t62 -16.5q42 0 76 25t34 65q0 31 -25.5 51.5t-61.5 33.5t-72 27.5t-61.5 42.5t-25.5 69q0 56 41.5 94.5t97.5 38.5q79 0 119 -65l-41 -17q-28 39 -78 39q-39 0 -66.5 -26t-27.5 -64q0 -30 25 -51t61 -33.5t72.5 -27.5
t61.5 -43t25 -69q0 -57 -47.5 -95t-106.5 -38z" />
    <glyph glyph-name="t" unicode="t" horiz-adv-x="338" 
d="M149 0v432h-100v38h100v167h40v-167h100v-38h-100v-432h-40z" />
    <glyph glyph-name="u" unicode="u" horiz-adv-x="517" 
d="M258 -10q-76 0 -129.5 52.5t-53.5 126.5v301h40v-301q0 -55 43.5 -97.5t99.5 -42.5q58 0 101 42t43 98v301h40v-301q0 -74 -54 -126.5t-130 -52.5z" />
    <glyph glyph-name="v" unicode="v" horiz-adv-x="510" 
d="M253 0l-215 470h48l170 -370h3l164 370h47l-210 -470h-7z" />
    <glyph glyph-name="w" unicode="w" horiz-adv-x="770" 
d="M236 0l-198 470h46l155 -372l145 361l147 -361l154 372h47l-200 -470h-9l-139 354l-139 -354h-9z" />
    <glyph glyph-name="x" unicode="x" horiz-adv-x="537" 
d="M47 0l193 235l-193 235h56l164 -202l165 202h56l-193 -235l193 -235h-56l-165 202l-164 -202h-56z" />
    <glyph glyph-name="y" unicode="y" horiz-adv-x="530" 
d="M133 -245l120 270l-214 445h50l186 -395l168 395h49l-311 -715h-48z" />
    <glyph glyph-name="z" unicode="z" horiz-adv-x="487" 
d="M33 0l330 433h-309v37h384l-328 -434h346v-36h-423z" />
    <glyph glyph-name="braceleft" unicode="{" horiz-adv-x="368" 
d="M250 -242q-41 0 -65.5 36.5t-24.5 84.5v187q0 74 -10 102q-16 47 -65 72v40q49 24 62 63t13 111v186q0 48 24.5 84.5t65.5 36.5h33v-37q-41 -2 -61.5 -24t-20.5 -70v-191q0 -59 -15 -102.5t-62 -76.5q47 -33 62 -76.5t15 -102.5v-192q0 -48 20.5 -70t61.5 -24v-37h-33z
" />
    <glyph glyph-name="bar" unicode="|" horiz-adv-x="250" 
d="M105 -227v977h40v-977h-40z" />
    <glyph glyph-name="braceright" unicode="}" horiz-adv-x="368" 
d="M85 -242v37q41 2 61.5 24t20.5 70v192q0 59 15 102.5t62 76.5q-47 33 -62 76.5t-15 102.5v191q0 48 -20.5 70t-61.5 24v37h33q41 0 65.5 -36.5t24.5 -84.5v-186q0 -36 1.5 -56t8.5 -45.5t23 -42.5t42 -30v-40q-49 -25 -65 -72q-10 -28 -10 -102v-187q0 -48 -24.5 -84.5
t-65.5 -36.5h-33z" />
    <glyph glyph-name="asciitilde" unicode="~" horiz-adv-x="468" 
d="M311 195q-29 0 -81.5 32.5t-73.5 32.5q-33 0 -61 -62l-35 14q19 39 41 63t55 24q29 0 81.5 -32.5t73.5 -32.5q32 0 61 63l36 -15q-40 -87 -97 -87z" />
    <glyph glyph-name="exclamdown" unicode="&#xa1;" horiz-adv-x="314" 
d="M157 676q-18 0 -30 12.5t-12 29.5q0 18 12 30t30 12q17 0 29.5 -12t12.5 -30q0 -17 -12.5 -29.5t-29.5 -12.5zM137 0v563h40v-563h-40z" />
    <glyph glyph-name="cent" unicode="&#xa2;" horiz-adv-x="570" 
d="M287 -91v85q-100 13 -163.5 81t-63.5 160t63.5 160t163.5 81v87h32v-87q144 -17 205 -131l-39 -16q-48 87 -166 105v-399q119 20 165 106l40 -18q-28 -53 -81 -87t-124 -42v-85h-32zM287 36v398q-83 -16 -133.5 -71t-50.5 -128t50.5 -128t133.5 -71z" />
    <glyph glyph-name="sterling" unicode="&#xa3;" horiz-adv-x="808" 
d="M159 -11v13l36 23q43 28 67 50.5t40.5 48.5t19 64.5t-0.5 83.5t-15 119q-2 16 -4 33h-86v39h84q4 129 69 205q33 38 78.5 60t91.5 22h124v-39h-124q-81 0 -141 -69q-54 -62 -59 -179h324v-39h-322l4 -27q25 -137 11.5 -217t-86.5 -152h393v-39h-504z" />
    <glyph glyph-name="currency" unicode="&#xa4;" horiz-adv-x="630" 
d="M315 50q-47 0 -85.5 14.5t-86.5 49.5l-42 -43l-23 23l40 40q-58 90 -58 166t58 166l-40 40l23 23l42 -43q48 35 86.5 49.5t85.5 14.5t85.5 -14.5t86.5 -49.5l42 43l23 -23l-40 -40q58 -90 58 -166t-58 -166l40 -40l-23 -23l-42 43q-48 -35 -86.5 -49.5t-85.5 -14.5z
M315 91q87 0 149 62t64 147q1 89 -60.5 149t-152.5 60t-153 -60t-61 -149q2 -85 64 -147t150 -62z" />
    <glyph glyph-name="yen" unicode="&#xa5;" 
d="M297 0v188h-203v31h203v121h-203v31h202l-239 379h48l212 -336l213 336h48l-240 -379h203v-31h-204v-121h204v-31h-204v-188h-40z" />
    <glyph glyph-name="brokenbar" unicode="&#xa6;" horiz-adv-x="200" 
d="M80 371v469h40v-469h-40zM80 -241v469h40v-469h-40z" />
    <glyph glyph-name="section" unicode="&#xa7;" horiz-adv-x="619" 
d="M308 -52q57 0 100 37.5t43 94.5q0 47 -38 81.5t-92.5 57t-109.5 45.5t-93 60.5t-38 89.5q0 46 27 82t75 75q-52 66 -52 116q0 62 37.5 103.5t90.5 53t112 -5.5t99 -61l-33 -27q-41 44 -101.5 54.5t-106.5 -20.5t-46 -95q0 -47 26 -73.5t76 -50.5l129 -63
q30 -15 47.5 -25.5t38.5 -27.5t30.5 -40t9.5 -52q0 -70 -97 -156q35 -30 48.5 -54.5t13.5 -66.5q0 -72 -47.5 -118.5t-112.5 -55.5t-137.5 23.5t-116.5 103.5l35 26q70 -111 183 -111zM410 223q80 57 80 123q0 42 -23 68.5t-66 46.5l-189 90q-80 -62 -80 -122
q0 -43 23 -69.5t66 -46.5z" />
    <glyph glyph-name="dieresis" unicode="&#xa8;" 
d="M232 812q-16 0 -26.5 10t-10.5 27q0 16 10.5 26.5t26.5 10.5t26.5 -10.5t10.5 -26.5t-10.5 -26.5t-26.5 -10.5zM409 812q-17 0 -27 10t-10 27q0 16 10.5 26.5t26.5 10.5t26.5 -10.5t10.5 -26.5t-10.5 -26.5t-26.5 -10.5z" />
    <glyph glyph-name="copyright" unicode="&#xa9;" horiz-adv-x="767" 
d="M383 63q-129 0 -221 91.5t-92 220.5t92 220.5t221 91.5t221.5 -91.5t92.5 -220.5t-92.5 -220.5t-221.5 -91.5zM383 101q114 0 195 80t81 194t-81 194t-195 80q-113 0 -194 -80t-81 -194t81 -194t194 -80zM381 215q-67 0 -114.5 47.5t-47.5 114.5t47.5 114.5t114.5 47.5
q97 0 147 -98l-42 -19q-38 70 -105 70q-47 0 -81 -34t-34 -81t34 -81t81 -34q64 0 103 65q24 -6 44 -15q-51 -97 -147 -97z" />
    <glyph glyph-name="guillemotleft" unicode="&#xab;" horiz-adv-x="405" 
d="M186 104l-141 136l141 126l24 -26l-114 -101l115 -110zM336 104l-141 136l141 126l24 -26l-114 -101l115 -110z" />
    <glyph glyph-name="registered" unicode="&#xae;" horiz-adv-x="491" 
d="M245 361q-82 0 -141 58.5t-59 140.5q0 83 59 141.5t141 58.5q83 0 142 -59t59 -141t-59 -140.5t-142 -58.5zM245 385q74 0 125.5 51t51.5 124t-51.5 124.5t-125.5 51.5q-72 0 -123.5 -51.5t-51.5 -124.5t51.5 -124t123.5 -51zM198 465v191h53q25 0 42.5 -16t17.5 -38
q0 -31 -40 -51l47 -86h-25l-46 84h-26v-84h-23zM221 568h30q15 0 26 9.5t11 24.5t-11 25t-26 10h-30v-69z" />
    <glyph glyph-name="macron" unicode="&#xaf;" horiz-adv-x="383" 
d="M20 589v40h344v-40h-344z" />
    <glyph glyph-name="degree" unicode="&#xb0;" horiz-adv-x="477" 
d="M239 400q-74 0 -126.5 52t-52.5 126t52.5 126.5t126.5 52.5t126 -52.5t52 -126.5t-52.5 -126t-125.5 -52zM239 437q58 0 99.5 41.5t41.5 99.5t-41.5 100t-99.5 42q-59 0 -100.5 -42t-41.5 -100t42 -99.5t100 -41.5z" />
    <glyph glyph-name="plusminus" unicode="&#xb1;" horiz-adv-x="698" 
d="M333 74v149h-263v30h263v149h32v-149h263v-30h-263v-149h-32zM70 0v30h558v-30h-558z" />
    <glyph glyph-name="acute" unicode="&#xb4;" horiz-adv-x="0" 
d="M-31 573l115 177h60l-154 -177h-21z" />
    <glyph glyph-name="paragraph" unicode="&#xb6;" horiz-adv-x="509" 
d="M256 0v286q-99 12 -162.5 77.5t-63.5 154.5q0 96 70.5 164t170.5 68h149v-750h-31v720h-102v-720h-31z" />
    <glyph glyph-name="periodcentered" unicode="&#xb7;" horiz-adv-x="0" 
d="M-10 197q-18 0 -30 12t-12 30q0 17 12 29t30 12t30 -12t12 -29q0 -19 -11.5 -30.5t-30.5 -11.5z" />
    <glyph glyph-name="cedilla" unicode="&#xb8;" horiz-adv-x="579" 
d="M211 -215l16 39q19 -1 45 -2t49 12t23 38q0 59 -90 51l30 81l30 -4q-15 0 -25 -47q42 1 71 -21t29 -60q0 -32 -18.5 -53t-45.5 -28t-58 -9t-56 3z" />
    <glyph glyph-name="guillemotright" unicode="&#xbb;" horiz-adv-x="405" 
d="M69 104l-24 25l114 110l-113 101l23 26l142 -126zM219 104l-24 25l114 110l-113 101l23 26l142 -126z" />
    <glyph glyph-name="questiondown" unicode="&#xbf;" horiz-adv-x="501" 
d="M250 693q-15 0 -25 9.5t-10 24.5q0 14 10 23.5t25 9.5t25 -9.5t10 -23.5q0 -15 -10 -24.5t-25 -9.5zM250 -10q-82 0 -141 57t-59 137q0 45 22 80.5t62 73.5q24 22 33 31q19 19 29.5 31.5t21 33t10.5 40.5v89h44v-90q0 -37 -20.5 -65.5t-64.5 -68.5q-30 -28 -46.5 -45.5
t-32 -48t-15.5 -61.5q0 -63 46 -107.5t111 -44.5q60 0 105.5 39.5t51.5 96.5h43q-6 -75 -63.5 -126.5t-136.5 -51.5z" />
    <glyph glyph-name="Agrave" unicode="&#xc0;" horiz-adv-x="652" 
d="M316 820l-154 177h60l116 -177h-22zM5 0l322 760l321 -760h-47l-71 169h-406l-72 -169h-47zM139 205h376l-188 454z" />
    <glyph glyph-name="Aacute" unicode="&#xc1;" horiz-adv-x="652" 
d="M316 820l116 177h60l-154 -177h-22zM5 0l322 760l321 -760h-47l-71 169h-406l-72 -169h-47zM139 205h376l-188 454z" />
    <glyph glyph-name="Acircumflex" unicode="&#xc2;" horiz-adv-x="652" 
d="M204 820l88 113h70l88 -113h-41l-83 88l-82 -88h-40zM5 0l322 760l321 -760h-47l-71 169h-406l-72 -169h-47zM139 205h376l-188 454z" />
    <glyph glyph-name="Atilde" unicode="&#xc3;" horiz-adv-x="652" 
d="M404 820q-29 0 -81.5 32.5t-73.5 32.5q-34 0 -61 -63l-35 15q43 86 96 86q29 0 81.5 -32.5t73.5 -32.5q31 0 61 63l36 -14q-39 -87 -97 -87zM5 0l322 760l321 -760h-47l-71 169h-406l-72 -169h-47zM139 205h376l-188 454z" />
    <glyph glyph-name="Adieresis" unicode="&#xc4;" horiz-adv-x="652" 
d="M238 820q-16 0 -26 10t-10 27q0 16 10 26.5t26 10.5t27 -10.5t11 -26.5t-10.5 -26.5t-27.5 -10.5zM416 820q-17 0 -27.5 10.5t-10.5 26.5t11 26.5t27 10.5q15 0 25.5 -10.5t10.5 -26.5t-10.5 -26.5t-25.5 -10.5zM5 0l322 760l321 -760h-47l-71 169h-406l-72 -169h-47z
M139 205h376l-188 454z" />
    <glyph glyph-name="Aring" unicode="&#xc5;" horiz-adv-x="652" 
d="M5 0l316 745q-32 2 -53.5 25.5t-21.5 54.5q0 34 23.5 57.5t57.5 23.5q33 0 57 -23.5t24 -57.5q0 -31 -21.5 -54.5t-53.5 -25.5l315 -745h-47l-71 169h-406l-72 -169h-47zM327 769q22 0 38.5 16.5t16.5 39.5t-16.5 40t-38.5 17q-24 0 -39.5 -16.5t-15.5 -40.5
q0 -23 16 -39.5t39 -16.5zM139 205h376l-188 454z" />
    <glyph glyph-name="AE" unicode="&#xc6;" horiz-adv-x="945" 
d="M71 0l467 750h352v-39h-321v-309h272v-39h-272v-324h321v-39h-360v220h-279l-135 -220h-45zM274 259h256v401z" />
    <glyph glyph-name="Ccedilla" unicode="&#xc7;" horiz-adv-x="761" 
d="M370 -222l16 39q19 -1 45 -2t49 12t23 38q0 59 -90 51l27 74q-154 8 -262 119.5t-108 265.5q0 159 114 272t274 113q158 0 265 -104l-30 -28q-102 90 -235 90q-143 0 -244.5 -100.5t-101.5 -242.5t101.5 -242.5t244.5 -100.5q127 0 235 90l31 -28q-105 -101 -258 -104
q-13 -13 -18 -44q42 1 71 -21t29 -60q0 -32 -18.5 -53t-45.5 -28t-58 -9t-56 3z" />
    <glyph glyph-name="Egrave" unicode="&#xc8;" horiz-adv-x="542" 
d="M270 820l-154 177h60l116 -177h-22zM90 0v750h382v-42h-342v-312h300v-42h-300v-312h342v-42h-382z" />
    <glyph glyph-name="Eacute" unicode="&#xc9;" horiz-adv-x="542" 
d="M270 820l116 177h60l-154 -177h-22zM90 0v750h382v-42h-342v-312h300v-42h-300v-312h342v-42h-382z" />
    <glyph glyph-name="Ecircumflex" unicode="&#xca;" horiz-adv-x="542" 
d="M158 820l88 113h70l88 -113h-41l-83 88l-82 -88h-40zM90 0v750h382v-42h-342v-312h300v-42h-300v-312h342v-42h-382z" />
    <glyph glyph-name="Edieresis" unicode="&#xcb;" horiz-adv-x="542" 
d="M192 820q-16 0 -26 10t-10 27q0 16 10 26.5t26 10.5t27 -10.5t11 -26.5t-10.5 -26.5t-27.5 -10.5zM370 820q-17 0 -27.5 10.5t-10.5 26.5t11 26.5t27 10.5q15 0 25.5 -10.5t10.5 -26.5t-10.5 -26.5t-25.5 -10.5zM90 0v750h382v-42h-342v-312h300v-42h-300v-312h342v-42
h-382z" />
    <glyph glyph-name="Igrave" unicode="&#xcc;" horiz-adv-x="250" 
d="M114 820l-154 177h60l115 -177h-21zM100 0v750h49v-750h-49z" />
    <glyph glyph-name="Iacute" unicode="&#xcd;" horiz-adv-x="250" 
d="M114 820l115 177h60l-154 -177h-21zM100 0v750h49v-750h-49z" />
    <glyph glyph-name="Icircumflex" unicode="&#xce;" horiz-adv-x="250" 
d="M2 820l88 113h70l88 -113h-42l-82 88l-82 -88h-40zM100 0v750h49v-750h-49z" />
    <glyph glyph-name="Idieresis" unicode="&#xcf;" horiz-adv-x="250" 
d="M36 820q-16 0 -26.5 10t-10.5 27q0 16 10.5 26.5t26.5 10.5t26.5 -10.5t10.5 -26.5t-10.5 -26.5t-26.5 -10.5zM213 820q-17 0 -27 10t-10 27q0 16 10.5 26.5t26.5 10.5t26.5 -10.5t10.5 -26.5t-10.5 -26.5t-26.5 -10.5zM100 0v750h49v-750h-49z" />
    <glyph glyph-name="Eth" unicode="&#xd0;" horiz-adv-x="715" 
d="M89 0v354h-87v30h87v366h162q180 0 286.5 -99t106.5 -274t-107 -276t-286 -101h-162zM129 42h122q161 0 256 88.5t95 246.5t-95 244.5t-256 86.5h-122v-324h177v-30h-177v-312z" />
    <glyph glyph-name="Ntilde" unicode="&#xd1;" horiz-adv-x="740" 
d="M455 820q-29 0 -81.5 32.5t-73.5 32.5q-34 0 -61 -63l-35 15q43 86 96 86q29 0 81.5 -32.5t73.5 -32.5q31 0 61 63l36 -14q-39 -87 -97 -87zM650 -15l-520 651v-636h-40v760l520 -659v649h40v-765z" />
    <glyph glyph-name="Ograve" unicode="&#xd2;" horiz-adv-x="914" 
d="M446 820l-154 177h60l116 -177h-22zM457 -10q-159 0 -273 113t-114 272t114 272t273 113t273 -113t114 -272t-114 -272t-273 -113zM457 32q142 0 243.5 100.5t101.5 242.5q0 141 -102 242t-243 101q-143 0 -244 -100.5t-101 -242.5t101.5 -242.5t243.5 -100.5z" />
    <glyph glyph-name="Oacute" unicode="&#xd3;" horiz-adv-x="914" 
d="M446 820l116 177h60l-154 -177h-22zM457 -10q-159 0 -273 113t-114 272t114 272t273 113t273 -113t114 -272t-114 -272t-273 -113zM457 32q142 0 243.5 100.5t101.5 242.5q0 141 -102 242t-243 101q-143 0 -244 -100.5t-101 -242.5t101.5 -242.5t243.5 -100.5z" />
    <glyph glyph-name="Ocircumflex" unicode="&#xd4;" horiz-adv-x="914" 
d="M334 820l88 113h70l88 -113h-41l-83 88l-82 -88h-40zM457 -10q-159 0 -273 113t-114 272t114 272t273 113t273 -113t114 -272t-114 -272t-273 -113zM457 32q142 0 243.5 100.5t101.5 242.5q0 141 -102 242t-243 101q-143 0 -244 -100.5t-101 -242.5t101.5 -242.5
t243.5 -100.5z" />
    <glyph glyph-name="Otilde" unicode="&#xd5;" horiz-adv-x="914" 
d="M534 820q-29 0 -81.5 32.5t-73.5 32.5q-34 0 -61 -63l-35 15q43 86 96 86q29 0 81.5 -32.5t73.5 -32.5q31 0 61 63l36 -14q-39 -87 -97 -87zM457 -10q-159 0 -273 113t-114 272t114 272t273 113t273 -113t114 -272t-114 -272t-273 -113zM457 32q142 0 243.5 100.5
t101.5 242.5q0 141 -102 242t-243 101q-143 0 -244 -100.5t-101 -242.5t101.5 -242.5t243.5 -100.5z" />
    <glyph glyph-name="Odieresis" unicode="&#xd6;" horiz-adv-x="914" 
d="M368 820q-16 0 -26 10t-10 27q0 16 10 26.5t26 10.5t27 -10.5t11 -26.5t-10.5 -26.5t-27.5 -10.5zM546 820q-17 0 -27.5 10.5t-10.5 26.5t11 26.5t27 10.5q15 0 25.5 -10.5t10.5 -26.5t-10.5 -26.5t-25.5 -10.5zM457 -10q-159 0 -273 113t-114 272t114 272t273 113
t273 -113t114 -272t-114 -272t-273 -113zM457 32q142 0 243.5 100.5t101.5 242.5q0 141 -102 242t-243 101q-143 0 -244 -100.5t-101 -242.5t101.5 -242.5t243.5 -100.5z" />
    <glyph glyph-name="multiply" unicode="&#xd7;" 
d="M128 23l-22 23l189 189l-189 189l22 23l189 -190l190 190l22 -23l-189 -189l189 -189l-22 -23l-190 190z" />
    <glyph glyph-name="Oslash" unicode="&#xd8;" horiz-adv-x="914" 
d="M198 -10l43 65q-171 128 -171 320q0 159 114 272t273 113q104 0 211 -63l41 63h25l-49 -74q159 -125 159 -311q0 -159 -114 -272t-273 -113q-100 0 -199 54l-35 -54h-25zM264 90l381 573q-96 55 -188 55q-143 0 -244 -100.5t-101 -242.5q0 -172 152 -285zM457 32
q142 0 243.5 100.5t101.5 242.5q0 160 -140 277l-381 -573q91 -47 176 -47z" />
    <glyph glyph-name="Ugrave" unicode="&#xd9;" horiz-adv-x="650" 
d="M314 820l-154 177h60l116 -177h-22zM325 -10q-98 0 -169 64.5t-71 148.5v547h43v-547q0 -69 56.5 -120t140.5 -51q85 0 141 51t56 120v547h43v-547q0 -85 -70 -149t-170 -64z" />
    <glyph glyph-name="Uacute" unicode="&#xda;" horiz-adv-x="650" 
d="M314 820l116 177h60l-154 -177h-22zM325 -10q-98 0 -169 64.5t-71 148.5v547h43v-547q0 -69 56.5 -120t140.5 -51q85 0 141 51t56 120v547h43v-547q0 -85 -70 -149t-170 -64z" />
    <glyph glyph-name="Ucircumflex" unicode="&#xdb;" horiz-adv-x="650" 
d="M202 820l88 113h70l88 -113h-41l-83 88l-82 -88h-40zM325 -10q-98 0 -169 64.5t-71 148.5v547h43v-547q0 -69 56.5 -120t140.5 -51q85 0 141 51t56 120v547h43v-547q0 -85 -70 -149t-170 -64z" />
    <glyph glyph-name="Udieresis" unicode="&#xdc;" horiz-adv-x="650" 
d="M236 820q-16 0 -26 10t-10 27q0 16 10 26.5t26 10.5t27 -10.5t11 -26.5t-10.5 -26.5t-27.5 -10.5zM414 820q-17 0 -27.5 10.5t-10.5 26.5t11 26.5t27 10.5q15 0 25.5 -10.5t10.5 -26.5t-10.5 -26.5t-25.5 -10.5zM325 -10q-98 0 -169 64.5t-71 148.5v547h43v-547
q0 -69 56.5 -120t140.5 -51q85 0 141 51t56 120v547h43v-547q0 -85 -70 -149t-170 -64z" />
    <glyph glyph-name="Yacute" unicode="&#xdd;" horiz-adv-x="559" 
d="M270 820l114 177h60l-154 -177h-20zM258 0v370l-253 380h51l223 -336l225 336h51l-254 -380v-370h-43z" />
    <glyph glyph-name="germandbls" unicode="&#xdf;" horiz-adv-x="559" 
d="M268 -9v39q82 6 136.5 62.5t54.5 134.5t-54.5 134.5t-136.5 61.5v41q50 5 83 40t33 83q0 51 -37.5 87.5t-89.5 36.5t-89.5 -36.5t-37.5 -87.5v-587h-40v587q0 67 49 115t118 48t118 -48t49 -115q0 -77 -78 -139q74 -37 113.5 -94.5t39.5 -126.5q0 -94 -66.5 -162
t-164.5 -74z" />
    <glyph glyph-name="agrave" unicode="&#xe0;" 
d="M294 540l-154 177h60l116 -177h-22zM305 -10q-101 0 -173 72t-72 173t72 173t173 72q62 0 115 -29t87 -78v97h40v-470h-40v97q-34 -49 -87 -78t-115 -29zM305 33q83 0 142.5 59.5t59.5 142.5t-59.5 142.5t-142.5 59.5t-142.5 -59.5t-59.5 -142.5t59.5 -142.5t142.5 -59.5
z" />
    <glyph glyph-name="aacute" unicode="&#xe1;" 
d="M294 540l116 177h60l-154 -177h-22zM305 -10q-101 0 -173 72t-72 173t72 173t173 72q62 0 115 -29t87 -78v97h40v-470h-40v97q-34 -49 -87 -78t-115 -29zM305 33q83 0 142.5 59.5t59.5 142.5t-59.5 142.5t-142.5 59.5t-142.5 -59.5t-59.5 -142.5t59.5 -142.5t142.5 -59.5
z" />
    <glyph glyph-name="acircumflex" unicode="&#xe2;" 
d="M182 540l88 113h70l88 -113h-41l-83 88l-82 -88h-40zM305 -10q-101 0 -173 72t-72 173t72 173t173 72q62 0 115 -29t87 -78v97h40v-470h-40v97q-34 -49 -87 -78t-115 -29zM305 33q83 0 142.5 59.5t59.5 142.5t-59.5 142.5t-142.5 59.5t-142.5 -59.5t-59.5 -142.5
t59.5 -142.5t142.5 -59.5z" />
    <glyph glyph-name="atilde" unicode="&#xe3;" 
d="M382 540q-29 0 -81.5 32.5t-73.5 32.5q-34 0 -61 -63l-35 15q43 86 96 86q29 0 81.5 -32.5t73.5 -32.5q31 0 61 63l36 -14q-39 -87 -97 -87zM305 -10q-101 0 -173 72t-72 173t72 173t173 72q62 0 115 -29t87 -78v97h40v-470h-40v97q-34 -49 -87 -78t-115 -29zM305 33
q83 0 142.5 59.5t59.5 142.5t-59.5 142.5t-142.5 59.5t-142.5 -59.5t-59.5 -142.5t59.5 -142.5t142.5 -59.5z" />
    <glyph glyph-name="adieresis" unicode="&#xe4;" 
d="M216 540q-16 0 -26 10t-10 27q0 16 10 26.5t26 10.5t27 -10.5t11 -26.5t-10.5 -26.5t-27.5 -10.5zM394 540q-17 0 -27.5 10.5t-10.5 26.5t11 26.5t27 10.5q15 0 25.5 -10.5t10.5 -26.5t-10.5 -26.5t-25.5 -10.5zM305 -10q-101 0 -173 72t-72 173t72 173t173 72
q62 0 115 -29t87 -78v97h40v-470h-40v97q-34 -49 -87 -78t-115 -29zM305 33q83 0 142.5 59.5t59.5 142.5t-59.5 142.5t-142.5 59.5t-142.5 -59.5t-59.5 -142.5t59.5 -142.5t142.5 -59.5z" />
    <glyph glyph-name="aring" unicode="&#xe5;" 
d="M305 540q-34 0 -57.5 23.5t-23.5 56.5q0 34 23.5 57.5t57.5 23.5q33 0 57 -23.5t24 -57.5q0 -33 -24 -56.5t-57 -23.5zM305 564q22 0 38.5 16.5t16.5 39.5t-16.5 40t-38.5 17q-24 0 -39.5 -16.5t-15.5 -40.5q0 -23 16 -39.5t39 -16.5zM305 -10q-101 0 -173 72t-72 173
t72 173t173 72q62 0 115 -29t87 -78v97h40v-470h-40v97q-34 -49 -87 -78t-115 -29zM305 33q83 0 142.5 59.5t59.5 142.5t-59.5 142.5t-142.5 59.5t-142.5 -59.5t-59.5 -142.5t59.5 -142.5t142.5 -59.5z" />
    <glyph glyph-name="ae" unicode="&#xe6;" horiz-adv-x="951" 
d="M202 -10q-60 0 -103.5 38t-43.5 98q0 43 25 77.5t65 50.5h257v71q0 56 -42 86.5t-101 30.5q-40 0 -76 -17.5t-56 -50.5l-37 15q25 44 70.5 67.5t98.5 23.5q63 0 114 -31t64 -88q33 54 89.5 86.5t119.5 32.5q97 0 168.5 -66t77.5 -163h-447v-23q-3 -83 56.5 -139
t145.5 -56q55 0 103.5 29t74.5 77l39 -18q-32 -61 -91 -96t-127 -35q-55 0 -105.5 25t-84.5 68q-43 -23 -134 -58t-120 -35zM454 294h387q-20 62 -74 102.5t-120 40.5q-65 0 -119.5 -40.5t-73.5 -102.5zM205 28q29 0 66.5 12.5t99 40.5t65.5 30q-29 49 -34 108h-247
q-26 -13 -42.5 -37t-16.5 -52q0 -43 32.5 -72.5t76.5 -29.5z" />
    <glyph glyph-name="ccedilla" unicode="&#xe7;" horiz-adv-x="580" 
d="M218 -222l16 39q19 -1 45 -2t49 12t23 38q0 59 -90 51l27 75q-96 7 -162 77.5t-66 166.5q0 101 72 173t174 72q69 0 127.5 -36t90.5 -98l-39 -16q-26 49 -74.5 78t-104.5 29q-84 0 -143.5 -59.5t-59.5 -142.5t59.5 -142.5t143.5 -59.5q56 0 104.5 28.5t73.5 77.5l40 -17
q-30 -58 -87 -94t-123 -38q-13 -13 -18 -44q42 1 71 -21t29 -60q0 -32 -18.5 -53t-45.5 -28t-58 -9t-56 3z" />
    <glyph glyph-name="egrave" unicode="&#xe8;" horiz-adv-x="610" 
d="M294 540l-154 177h60l116 -177h-22zM305 -10q-101 0 -173 72t-72 173t72 173t173 72q97 0 167.5 -66.5t77.5 -162.5h-447v-16q0 -83 59.5 -142.5t142.5 -59.5q57 0 104.5 29t73.5 77l39 -18q-31 -59 -89.5 -95t-127.5 -36zM111 294h388q-20 62 -73.5 102.5t-120.5 40.5
t-120.5 -40.5t-73.5 -102.5z" />
    <glyph glyph-name="eacute" unicode="&#xe9;" horiz-adv-x="610" 
d="M294 540l116 177h60l-154 -177h-22zM305 -10q-101 0 -173 72t-72 173t72 173t173 72q97 0 167.5 -66.5t77.5 -162.5h-447v-16q0 -83 59.5 -142.5t142.5 -59.5q57 0 104.5 29t73.5 77l39 -18q-31 -59 -89.5 -95t-127.5 -36zM111 294h388q-20 62 -73.5 102.5t-120.5 40.5
t-120.5 -40.5t-73.5 -102.5z" />
    <glyph glyph-name="ecircumflex" unicode="&#xea;" horiz-adv-x="610" 
d="M182 540l88 113h70l88 -113h-41l-83 88l-82 -88h-40zM305 -10q-101 0 -173 72t-72 173t72 173t173 72q97 0 167.5 -66.5t77.5 -162.5h-447v-16q0 -83 59.5 -142.5t142.5 -59.5q57 0 104.5 29t73.5 77l39 -18q-31 -59 -89.5 -95t-127.5 -36zM111 294h388
q-20 62 -73.5 102.5t-120.5 40.5t-120.5 -40.5t-73.5 -102.5z" />
    <glyph glyph-name="edieresis" unicode="&#xeb;" horiz-adv-x="610" 
d="M216 540q-16 0 -26 10t-10 27q0 16 10 26.5t26 10.5t27 -10.5t11 -26.5t-10.5 -26.5t-27.5 -10.5zM394 540q-17 0 -27.5 10.5t-10.5 26.5t11 26.5t27 10.5q15 0 25.5 -10.5t10.5 -26.5t-10.5 -26.5t-25.5 -10.5zM305 -10q-101 0 -173 72t-72 173t72 173t173 72
q97 0 167.5 -66.5t77.5 -162.5h-447v-16q0 -83 59.5 -142.5t142.5 -59.5q57 0 104.5 29t73.5 77l39 -18q-31 -59 -89.5 -95t-127.5 -36zM111 294h388q-20 62 -73.5 102.5t-120.5 40.5t-120.5 -40.5t-73.5 -102.5z" />
    <glyph glyph-name="igrave" unicode="&#xec;" horiz-adv-x="253" 
d="M116 540l-154 177h60l114 -177h-20zM105 0v470h43v-470h-43z" />
    <glyph glyph-name="iacute" unicode="&#xed;" horiz-adv-x="253" 
d="M116 540l114 177h60l-154 -177h-20zM105 0v470h43v-470h-43z" />
    <glyph glyph-name="icircumflex" unicode="&#xee;" horiz-adv-x="253" 
d="M3 540l88 113h70l88 -113h-41l-83 88l-82 -88h-40zM105 0v470h43v-470h-43z" />
    <glyph glyph-name="idieresis" unicode="&#xef;" horiz-adv-x="253" 
d="M38 540q-17 0 -27.5 10.5t-10.5 26.5t11 26.5t27 10.5q15 0 25.5 -10.5t10.5 -26.5t-10.5 -26.5t-25.5 -10.5zM214 540q-16 0 -26 10t-10 27q0 16 10 26.5t26 10.5t27 -10.5t11 -26.5t-10.5 -26.5t-27.5 -10.5zM105 0v470h43v-470h-43z" />
    <glyph glyph-name="ntilde" unicode="&#xf1;" horiz-adv-x="516" 
d="M348 540q-29 0 -81.5 32.5t-74.5 32.5q-33 0 -60 -63l-36 15q13 25 23.5 40.5t30.5 30.5t42 15q29 0 81.5 -32.5t74.5 -32.5q30 0 60 63l36 -14q-39 -87 -96 -87zM90 0v470h40v-68q27 36 67.5 57t85.5 21q74 0 121 -51.5t47 -126.5v-302h-40v302q0 56 -40 96.5t-96 40.5
t-100.5 -39t-44.5 -95v-305h-40z" />
    <glyph glyph-name="ograve" unicode="&#xf2;" horiz-adv-x="610" 
d="M294 540l-154 177h60l116 -177h-22zM305 -10q-101 0 -173 72t-72 173t72 173t173 72t173 -72t72 -173t-72 -173t-173 -72zM305 33q83 0 142.5 59.5t59.5 142.5t-59.5 142.5t-142.5 59.5t-142.5 -59.5t-59.5 -142.5t59.5 -142.5t142.5 -59.5z" />
    <glyph glyph-name="oacute" unicode="&#xf3;" horiz-adv-x="610" 
d="M294 540l116 177h60l-154 -177h-22zM305 -10q-101 0 -173 72t-72 173t72 173t173 72t173 -72t72 -173t-72 -173t-173 -72zM305 33q83 0 142.5 59.5t59.5 142.5t-59.5 142.5t-142.5 59.5t-142.5 -59.5t-59.5 -142.5t59.5 -142.5t142.5 -59.5z" />
    <glyph glyph-name="ocircumflex" unicode="&#xf4;" horiz-adv-x="610" 
d="M182 540l88 113h70l88 -113h-41l-83 88l-82 -88h-40zM305 -10q-101 0 -173 72t-72 173t72 173t173 72t173 -72t72 -173t-72 -173t-173 -72zM305 33q83 0 142.5 59.5t59.5 142.5t-59.5 142.5t-142.5 59.5t-142.5 -59.5t-59.5 -142.5t59.5 -142.5t142.5 -59.5z" />
    <glyph glyph-name="otilde" unicode="&#xf5;" horiz-adv-x="610" 
d="M382 540q-29 0 -81.5 32.5t-73.5 32.5q-34 0 -61 -63l-35 15q43 86 96 86q29 0 81.5 -32.5t73.5 -32.5q31 0 61 63l36 -14q-39 -87 -97 -87zM305 -10q-101 0 -173 72t-72 173t72 173t173 72t173 -72t72 -173t-72 -173t-173 -72zM305 33q83 0 142.5 59.5t59.5 142.5
t-59.5 142.5t-142.5 59.5t-142.5 -59.5t-59.5 -142.5t59.5 -142.5t142.5 -59.5z" />
    <glyph glyph-name="odieresis" unicode="&#xf6;" horiz-adv-x="610" 
d="M216 540q-16 0 -26 10t-10 27q0 16 10 26.5t26 10.5t27 -10.5t11 -26.5t-10.5 -26.5t-27.5 -10.5zM394 540q-17 0 -27.5 10.5t-10.5 26.5t11 26.5t27 10.5q15 0 25.5 -10.5t10.5 -26.5t-10.5 -26.5t-25.5 -10.5zM305 -10q-101 0 -173 72t-72 173t72 173t173 72t173 -72
t72 -173t-72 -173t-173 -72zM305 33q83 0 142.5 59.5t59.5 142.5t-59.5 142.5t-142.5 59.5t-142.5 -59.5t-59.5 -142.5t59.5 -142.5t142.5 -59.5z" />
    <glyph glyph-name="divide" unicode="&#xf7;" horiz-adv-x="698" 
d="M355 369q-14 0 -23.5 9.5t-9.5 24.5q0 16 9.5 25.5t23.5 9.5q15 0 24.5 -9.5t9.5 -25.5q0 -15 -9.5 -24.5t-24.5 -9.5zM70 218v32h558v-32h-558zM355 32q-14 0 -23.5 9.5t-9.5 25.5q0 15 9.5 24.5t23.5 9.5q15 0 24.5 -9.5t9.5 -24.5q0 -16 -9.5 -25.5t-24.5 -9.5z" />
    <glyph glyph-name="oslash" unicode="&#xf8;" horiz-adv-x="610" 
d="M149 -43l33 66q-122 81 -122 212q0 101 72 173t173 72q47 0 99 -21l27 52h39l-35 -68q115 -81 115 -208q0 -101 -72 -173t-173 -72q-39 0 -92 18l-25 -51h-39zM201 61l184 361q-46 15 -80 15q-83 0 -142.5 -59.5t-59.5 -142.5q0 -102 98 -174zM305 33q83 0 142.5 59.5
t59.5 142.5q0 97 -92 170l-183 -360q43 -12 73 -12z" />
    <glyph glyph-name="ugrave" unicode="&#xf9;" horiz-adv-x="517" 
d="M248 540l-154 177h60l115 -177h-21zM258 -10q-76 0 -129.5 52.5t-53.5 126.5v301h40v-301q0 -55 43.5 -97.5t99.5 -42.5q58 0 101 42t43 98v301h40v-301q0 -74 -54 -126.5t-130 -52.5z" />
    <glyph glyph-name="uacute" unicode="&#xfa;" horiz-adv-x="517" 
d="M248 540l115 177h60l-154 -177h-21zM258 -10q-76 0 -129.5 52.5t-53.5 126.5v301h40v-301q0 -55 43.5 -97.5t99.5 -42.5q58 0 101 42t43 98v301h40v-301q0 -74 -54 -126.5t-130 -52.5z" />
    <glyph glyph-name="ucircumflex" unicode="&#xfb;" horiz-adv-x="517" 
d="M136 540l88 113h70l88 -113h-42l-82 88l-82 -88h-40zM258 -10q-76 0 -129.5 52.5t-53.5 126.5v301h40v-301q0 -55 43.5 -97.5t99.5 -42.5q58 0 101 42t43 98v301h40v-301q0 -74 -54 -126.5t-130 -52.5z" />
    <glyph glyph-name="udieresis" unicode="&#xfc;" horiz-adv-x="517" 
d="M170 540q-16 0 -26.5 10t-10.5 27q0 16 10.5 26.5t26.5 10.5t26.5 -10.5t10.5 -26.5t-10.5 -26.5t-26.5 -10.5zM347 540q-17 0 -27 10t-10 27q0 16 10.5 26.5t26.5 10.5t26.5 -10.5t10.5 -26.5t-10.5 -26.5t-26.5 -10.5zM258 -10q-76 0 -129.5 52.5t-53.5 126.5v301h40
v-301q0 -55 43.5 -97.5t99.5 -42.5q58 0 101 42t43 98v301h40v-301q0 -74 -54 -126.5t-130 -52.5z" />
    <glyph glyph-name="yacute" unicode="&#xfd;" horiz-adv-x="530" 
d="M255 540l115 177h60l-154 -177h-21zM133 -245l120 270l-214 445h50l186 -395l168 395h49l-311 -715h-48z" />
    <glyph glyph-name="ydieresis" unicode="&#xff;" horiz-adv-x="530" 
d="M177 540q-17 0 -27 10t-10 27q0 16 10.5 26.5t26.5 10.5t26.5 -10.5t10.5 -26.5t-10.5 -26.5t-26.5 -10.5zM354 540q-16 0 -26.5 10t-10.5 27q0 16 10.5 26.5t26.5 10.5t26.5 -10.5t10.5 -26.5t-10.5 -26.5t-26.5 -10.5zM133 -245l120 270l-214 445h50l186 -395l168 395
h49l-311 -715h-48z" />
    <glyph glyph-name="Abreve" unicode="&#x102;" horiz-adv-x="652" 
d="M327 820q-60 0 -97.5 27.5t-37.5 87.5h35q0 -80 100 -80t100 80h35q0 -60 -37.5 -87.5t-97.5 -27.5zM5 0l322 760l321 -760h-47l-71 169h-406l-72 -169h-47zM139 205h376l-188 454z" />
    <glyph glyph-name="abreve" unicode="&#x103;" 
d="M305 540q-60 0 -97.5 27.5t-37.5 87.5h35q0 -80 100 -80t100 80h35q0 -60 -37.5 -87.5t-97.5 -27.5zM305 -10q-101 0 -173 72t-72 173t72 173t173 72q62 0 115 -29t87 -78v97h40v-470h-40v97q-34 -49 -87 -78t-115 -29zM305 33q83 0 142.5 59.5t59.5 142.5t-59.5 142.5
t-142.5 59.5t-142.5 -59.5t-59.5 -142.5t59.5 -142.5t142.5 -59.5z" />
    <glyph glyph-name="Aogonek" unicode="&#x104;" horiz-adv-x="652" 
d="M549 -124q0 -27 23.5 -39.5t52.5 -12.5v-28q-22 0 -41.5 3.5t-39 11t-31 24t-11.5 39.5q0 35 30.5 72t66.5 58l-69 165h-406l-72 -169h-47l322 760l321 -760h-14q-25 -10 -55 -52.5t-30 -71.5zM139 205h376l-188 454z" />
    <glyph glyph-name="aogonek" unicode="&#x105;" 
d="M305 -10q-101 0 -173 72t-72 173t72 173t173 72q62 0 115 -29t87 -78v97h40v-470h-40v97q-34 -49 -87 -78t-115 -29zM305 33q83 0 142.5 59.5t59.5 142.5t-59.5 142.5t-142.5 59.5t-142.5 -59.5t-59.5 -142.5t59.5 -142.5t142.5 -59.5zM528 -214q-22 0 -41.5 3.5t-39 11
t-31 24t-11.5 39.5q0 36 32.5 74.5t69.5 58.5l40 -5q-24 0 -59.5 -46.5t-35.5 -79.5q0 -27 23.5 -39.5t52.5 -12.5v-28z" />
    <glyph glyph-name="Cacute" unicode="&#x106;" horiz-adv-x="761" 
d="M448 820l114 177h60l-154 -177h-20zM458 -10q-160 0 -274 113t-114 272t114 272t274 113q158 0 265 -104l-30 -28q-102 90 -235 90q-143 0 -244.5 -100.5t-101.5 -242.5t101.5 -242.5t244.5 -100.5q127 0 235 90l31 -28q-109 -104 -266 -104z" />
    <glyph glyph-name="cacute" unicode="&#x107;" horiz-adv-x="580" 
d="M296 540l114 177h60l-154 -177h-20zM306 -10q-102 0 -174 72t-72 173t72 173t174 72q69 0 127.5 -36t90.5 -98l-39 -16q-26 49 -74.5 78t-104.5 29q-84 0 -143.5 -59.5t-59.5 -142.5t59.5 -142.5t143.5 -59.5q56 0 104.5 28.5t73.5 77.5l40 -17q-31 -60 -90.5 -96
t-127.5 -36z" />
    <glyph glyph-name="Ccaron" unicode="&#x10c;" horiz-adv-x="761" 
d="M423 820l-88 113h40l82 -88l83 88h41l-88 -113h-70zM458 -10q-160 0 -274 113t-114 272t114 272t274 113q158 0 265 -104l-30 -28q-102 90 -235 90q-143 0 -244.5 -100.5t-101.5 -242.5t101.5 -242.5t244.5 -100.5q127 0 235 90l31 -28q-109 -104 -266 -104z" />
    <glyph glyph-name="ccaron" unicode="&#x10d;" horiz-adv-x="580" 
d="M271 540l-88 113h40l82 -88l83 88h41l-88 -113h-70zM306 -10q-102 0 -174 72t-72 173t72 173t174 72q69 0 127.5 -36t90.5 -98l-39 -16q-26 49 -74.5 78t-104.5 29q-84 0 -143.5 -59.5t-59.5 -142.5t59.5 -142.5t143.5 -59.5q56 0 104.5 28.5t73.5 77.5l40 -17
q-31 -60 -90.5 -96t-127.5 -36z" />
    <glyph glyph-name="Dcaron" unicode="&#x10e;" horiz-adv-x="715" 
d="M332 820l-88 113h40l82 -88l84 88h40l-88 -113h-70zM90 0v750h162q180 0 286.5 -99t106.5 -274t-107 -276t-286 -101h-162zM130 42h122q161 0 256 88.5t95 246.5t-95 244.5t-256 86.5h-122v-666z" />
    <glyph glyph-name="dcaron" unicode="&#x10f;" horiz-adv-x="655" 
d="M305 -10q-101 0 -173 72t-72 173t72 173t173 72q62 0 115 -29t87 -78v377h40v-750h-40v97q-34 -49 -87 -78t-115 -29zM607 532l44 218h64l-80 -218h-28zM305 33q83 0 142.5 59.5t59.5 142.5t-59.5 142.5t-142.5 59.5t-142.5 -59.5t-59.5 -142.5t59.5 -142.5t142.5 -59.5z
" />
    <glyph glyph-name="Dcroat" unicode="&#x110;" horiz-adv-x="715" 
d="M89 0v354h-87v30h87v366h162q180 0 286.5 -99t106.5 -274t-107 -276t-286 -101h-162zM129 42h122q161 0 256 88.5t95 246.5t-95 244.5t-256 86.5h-122v-324h177v-30h-177v-312z" />
    <glyph glyph-name="dcroat" unicode="&#x111;" 
d="M305 -10q-101 0 -173 72t-72 173t72 173t173 72q62 0 115 -29t87 -78v190h-175v30h175v157h40v-157h90v-30h-90v-563h-40v97q-34 -49 -87 -78t-115 -29zM305 33q83 0 142.5 59.5t59.5 142.5t-59.5 142.5t-142.5 59.5t-142.5 -59.5t-59.5 -142.5t59.5 -142.5t142.5 -59.5z
" />
    <glyph glyph-name="Eogonek" unicode="&#x118;" horiz-adv-x="542" 
d="M453 -206q-22 0 -41.5 3.5t-39 11t-31 24t-11.5 39.5q0 34 28.5 69.5t64.5 58.5h-333v750h382v-42h-342v-312h300v-42h-300v-312h342v-42q-24 0 -59.5 -46.5t-35.5 -79.5q0 -27 23.5 -39.5t52.5 -12.5v-28z" />
    <glyph glyph-name="eogonek" unicode="&#x119;" horiz-adv-x="610" 
d="M306 -214q-22 0 -41.5 3.5t-39 11t-31 24t-11.5 39.5q0 34 28.5 69.5t64.5 58.5q-91 11 -153.5 80.5t-62.5 162.5q0 101 72 173t173 72q97 0 167.5 -66.5t77.5 -162.5h-447v-16q0 -83 59.5 -142.5t142.5 -59.5q57 0 104.5 29t73.5 77l39 -18q-30 -57 -85 -92.5
t-121 -38.5q-30 -10 -58 -46t-28 -78q0 -27 23.5 -39.5t52.5 -12.5v-28zM111 294h388q-20 62 -73.5 102.5t-120.5 40.5t-120.5 -40.5t-73.5 -102.5z" />
    <glyph glyph-name="Ecaron" unicode="&#x11a;" horiz-adv-x="542" 
d="M246 820l-88 113h40l82 -88l83 88h41l-88 -113h-70zM90 0v750h382v-42h-342v-312h300v-42h-300v-312h342v-42h-382z" />
    <glyph glyph-name="ecaron" unicode="&#x11b;" horiz-adv-x="610" 
d="M270 540l-88 113h40l82 -88l83 88h41l-88 -113h-70zM305 -10q-101 0 -173 72t-72 173t72 173t173 72q97 0 167.5 -66.5t77.5 -162.5h-447v-16q0 -83 59.5 -142.5t142.5 -59.5q57 0 104.5 29t73.5 77l39 -18q-31 -59 -89.5 -95t-127.5 -36zM111 294h388
q-20 62 -73.5 102.5t-120.5 40.5t-120.5 -40.5t-73.5 -102.5z" />
    <glyph glyph-name="dotlessi" unicode="&#x131;" horiz-adv-x="253" 
d="M105 0v470h43v-470h-43z" />
    <glyph glyph-name="Lacute" unicode="&#x139;" horiz-adv-x="446" 
d="M104 820l114 177h60l-154 -177h-20zM90 0v750h49v-708h267v-42h-316z" />
    <glyph glyph-name="lacute" unicode="&#x13a;" horiz-adv-x="250" 
d="M114 810l116 177h60l-154 -177h-22zM105 0v750h40v-750h-40z" />
    <glyph glyph-name="Lcaron" unicode="&#x13d;" horiz-adv-x="446" 
d="M90 0v750h49v-708h267v-42h-316zM298 532l44 218h64l-80 -218h-28z" />
    <glyph glyph-name="lcaron" unicode="&#x13e;" horiz-adv-x="253" 
d="M105 0v750h40v-750h-40zM205 532l44 218h64l-80 -218h-28z" />
    <glyph glyph-name="Lslash" unicode="&#x141;" horiz-adv-x="446" 
d="M89 0v309l-52 -31l-15 26l67 39v407h49v-378l70 41l15 -25l-85 -50v-296h267v-42h-316z" />
    <glyph glyph-name="lslash" unicode="&#x142;" horiz-adv-x="250" 
d="M104 0v318l-67 -40l-15 26l82 48v398h40v-375l64 38l15 -25l-79 -47v-341h-40z" />
    <glyph glyph-name="Nacute" unicode="&#x143;" horiz-adv-x="740" 
d="M348 820l114 177h60l-154 -177h-20zM650 -15l-520 651v-636h-40v760l520 -659v649h40v-765z" />
    <glyph glyph-name="nacute" unicode="&#x144;" horiz-adv-x="516" 
d="M260 540l115 177h60l-154 -177h-21zM90 0v470h40v-68q27 36 67.5 57t85.5 21q74 0 121 -51.5t47 -126.5v-302h-40v302q0 56 -40 96.5t-96 40.5t-100.5 -39t-44.5 -95v-305h-40z" />
    <glyph glyph-name="Ncaron" unicode="&#x147;" horiz-adv-x="740" 
d="M355 820l-88 113h40l82 -88l83 88h41l-88 -113h-70zM650 -15l-520 651v-636h-40v760l520 -659v649h40v-765z" />
    <glyph glyph-name="ncaron" unicode="&#x148;" horiz-adv-x="516" 
d="M236 540l-88 113h40l82 -88l82 88h42l-88 -113h-70zM90 0v470h40v-68q27 36 67.5 57t85.5 21q74 0 121 -51.5t47 -126.5v-302h-40v302q0 56 -40 96.5t-96 40.5t-100.5 -39t-44.5 -95v-305h-40z" />
    <glyph glyph-name="Ohungarumlaut" unicode="&#x150;" horiz-adv-x="914" 
d="M382 820l114 177h60l-154 -177h-20zM512 820l114 177h60l-154 -177h-20zM457 -10q-159 0 -273 113t-114 272t114 272t273 113t273 -113t114 -272t-114 -272t-273 -113zM457 32q142 0 243.5 100.5t101.5 242.5q0 141 -102 242t-243 101q-143 0 -244 -100.5t-101 -242.5
t101.5 -242.5t243.5 -100.5z" />
    <glyph glyph-name="ohungarumlaut" unicode="&#x151;" horiz-adv-x="610" 
d="M230 540l114 177h60l-154 -177h-20zM360 540l114 177h60l-154 -177h-20zM305 -10q-101 0 -173 72t-72 173t72 173t173 72t173 -72t72 -173t-72 -173t-173 -72zM305 33q83 0 142.5 59.5t59.5 142.5t-59.5 142.5t-142.5 59.5t-142.5 -59.5t-59.5 -142.5t59.5 -142.5
t142.5 -59.5z" />
    <glyph glyph-name="OE" unicode="&#x152;" horiz-adv-x="1255" 
d="M457 -10q-159 0 -273 113t-114 272t114 272t273 113q111 0 204 -58.5t142 -154.5v203h382v-42h-342v-312h300v-42h-300v-312h342v-42h-382v203q-49 -96 -142 -154.5t-204 -58.5zM457 32q142 0 243.5 100.5t101.5 242.5q0 141 -102 242t-243 101q-143 0 -244 -100.5
t-101 -242.5t101.5 -242.5t243.5 -100.5z" />
    <glyph glyph-name="oe" unicode="&#x153;" horiz-adv-x="1057" 
d="M305 -10q-101 0 -173 72t-72 173t72 173t173 72q74 0 134.5 -40t89.5 -106q29 66 89.5 106t134.5 40q97 0 167.5 -66.5t77.5 -162.5h-447v-16q0 -83 59.5 -142.5t142.5 -59.5q57 0 104.5 29t73.5 77l39 -18q-31 -59 -89.5 -95t-127.5 -36q-74 0 -134.5 40t-89.5 106
q-29 -66 -89.5 -106t-134.5 -40zM305 33q83 0 142.5 59.5t59.5 142.5t-59.5 142.5t-142.5 59.5t-142.5 -59.5t-59.5 -142.5t59.5 -142.5t142.5 -59.5zM559 294h388q-20 62 -73.5 102.5t-120.5 40.5t-120.5 -40.5t-73.5 -102.5z" />
    <glyph glyph-name="Racute" unicode="&#x154;" horiz-adv-x="581" 
d="M192 820l115 177h60l-154 -177h-21zM90 0v750h225q85 0 146 -59.5t61 -142.5q0 -66 -43.5 -119.5t-118.5 -77.5l181 -351h-49l-177 347h-185v-347h-40zM130 389h185q68 0 116 46.5t48 112.5t-48 113t-116 47h-185v-319z" />
    <glyph glyph-name="racute" unicode="&#x155;" horiz-adv-x="355" 
d="M204 541l116 177h60l-154 -177h-22zM95 0v469h41v-85q28 62 83.5 84t115.5 6v-42q-89 19 -144 -29.5t-55 -142.5v-260h-41z" />
    <glyph glyph-name="Rcaron" unicode="&#x158;" horiz-adv-x="581" 
d="M168 820l-88 113h40l82 -88l82 88h42l-88 -113h-70zM90 0v750h225q85 0 146 -59.5t61 -142.5q0 -66 -43.5 -119.5t-118.5 -77.5l181 -351h-49l-177 347h-185v-347h-40zM130 389h185q68 0 116 46.5t48 112.5t-48 113t-116 47h-185v-319z" />
    <glyph glyph-name="rcaron" unicode="&#x159;" horiz-adv-x="355" 
d="M180 541l-88 113h40l82 -88l83 88h41l-88 -113h-70zM95 0v469h41v-85q28 62 83.5 84t115.5 6v-42q-89 19 -144 -29.5t-55 -142.5v-260h-41z" />
    <glyph glyph-name="Sacute" unicode="&#x15a;" horiz-adv-x="543" 
d="M274 820l114 177h60l-154 -177h-20zM258 -10q-65 0 -124.5 33t-88.5 87l41 17q24 -43 72.5 -68.5t99.5 -25.5q72 0 131.5 44.5t59.5 115.5q0 53 -34.5 86t-93.5 59q-12 6 -35.5 15.5t-33.5 13.5q-87 35 -132.5 75.5t-45.5 114.5q0 84 62 143.5t148 59.5q50 0 95.5 -23
t74.5 -63l-41 -17q-49 60 -129 60q-68 0 -117 -47t-49 -113q0 -53 34.5 -85t93.5 -58q4 -2 29.5 -12t39.5 -16q87 -35 132.5 -76t45.5 -117q0 -86 -71 -144.5t-164 -58.5z" />
    <glyph glyph-name="sacute" unicode="&#x15b;" horiz-adv-x="383" 
d="M182 540l114 177h60l-154 -177h-20zM189 -10q-46 0 -87 23t-58 63l41 17q12 -27 42 -43.5t62 -16.5q42 0 76 25t34 65q0 31 -25.5 51.5t-61.5 33.5t-72 27.5t-61.5 42.5t-25.5 69q0 56 41.5 94.5t97.5 38.5q79 0 119 -65l-41 -17q-28 39 -78 39q-39 0 -66.5 -26
t-27.5 -64q0 -30 25 -51t61 -33.5t72.5 -27.5t61.5 -43t25 -69q0 -57 -47.5 -95t-106.5 -38z" />
    <glyph glyph-name="Scedilla" unicode="&#x15e;" horiz-adv-x="543" 
d="M170 -222l16 39q19 -1 45 -2t49 12t23 38q0 59 -90 51l27 75q-61 4 -115 36t-80 83l41 17q24 -43 72.5 -68.5t99.5 -25.5q72 0 131.5 44.5t59.5 115.5q0 53 -34.5 86t-93.5 59q-12 6 -35.5 15.5t-33.5 13.5q-87 35 -132.5 75.5t-45.5 114.5q0 84 62 143.5t148 59.5
q50 0 95.5 -23t74.5 -63l-41 -17q-49 60 -129 60q-68 0 -117 -47t-49 -113q0 -53 34.5 -85t93.5 -58q4 -2 29.5 -12t39.5 -16q87 -35 132.5 -76t45.5 -117q0 -84 -68 -142t-159 -61q-13 -13 -18 -44q42 1 71 -21t29 -60q0 -32 -18.5 -53t-45.5 -28t-58 -9t-56 3z" />
    <glyph glyph-name="scedilla" unicode="&#x15f;" horiz-adv-x="383" 
d="M101 -222l16 39q19 -1 45 -2t49 12t23 38q0 59 -90 51l28 75q-42 4 -77 26.5t-51 58.5l41 17q12 -27 42 -43.5t62 -16.5q42 0 76 25t34 65q0 31 -25.5 51.5t-61.5 33.5t-72 27.5t-61.5 42.5t-25.5 69q0 56 41.5 94.5t97.5 38.5q79 0 119 -65l-41 -17q-28 39 -78 39
q-39 0 -66.5 -26t-27.5 -64q0 -30 25 -51t61 -33.5t72.5 -27.5t61.5 -43t25 -69q0 -55 -44.5 -92.5t-101.5 -40.5q-13 -11 -18 -44q42 1 71 -21t29 -60q0 -32 -18.5 -53t-45.5 -28t-58 -9t-56 3z" />
    <glyph glyph-name="Scaron" unicode="&#x160;" horiz-adv-x="543" 
d="M249 820l-88 113h40l82 -88l83 88h41l-88 -113h-70zM258 -10q-65 0 -124.5 33t-88.5 87l41 17q24 -43 72.5 -68.5t99.5 -25.5q72 0 131.5 44.5t59.5 115.5q0 53 -34.5 86t-93.5 59q-12 6 -35.5 15.5t-33.5 13.5q-87 35 -132.5 75.5t-45.5 114.5q0 84 62 143.5t148 59.5
q50 0 95.5 -23t74.5 -63l-41 -17q-49 60 -129 60q-68 0 -117 -47t-49 -113q0 -53 34.5 -85t93.5 -58q4 -2 29.5 -12t39.5 -16q87 -35 132.5 -76t45.5 -117q0 -86 -71 -144.5t-164 -58.5z" />
    <glyph glyph-name="scaron" unicode="&#x161;" horiz-adv-x="383" 
d="M157 540l-88 113h40l82 -88l83 88h41l-88 -113h-70zM189 -10q-46 0 -87 23t-58 63l41 17q12 -27 42 -43.5t62 -16.5q42 0 76 25t34 65q0 31 -25.5 51.5t-61.5 33.5t-72 27.5t-61.5 42.5t-25.5 69q0 56 41.5 94.5t97.5 38.5q79 0 119 -65l-41 -17q-28 39 -78 39
q-39 0 -66.5 -26t-27.5 -64q0 -30 25 -51t61 -33.5t72.5 -27.5t61.5 -43t25 -69q0 -57 -47.5 -95t-106.5 -38z" />
    <glyph glyph-name="uni0162" unicode="&#x162;" horiz-adv-x="473" 
d="M148 -212l16 39q19 -1 45.5 -2t49.5 12t23 38q0 18 -8.5 29t-24.5 15.5t-27.5 5.5t-29.5 1l25 74v708h-212v42h463v-42h-212v-708q-10 0 -18.5 -14.5t-11.5 -29.5q42 0 71 -21.5t29 -59.5q0 -32 -18 -53t-45 -28t-58 -9t-57 3z" />
    <glyph glyph-name="uni0163" unicode="&#x163;" horiz-adv-x="338" 
d="M149 0v432h-100v38h100v167h40v-167h100v-38h-100v-432h-40z" />
    <glyph glyph-name="Tcaron" unicode="&#x164;" horiz-adv-x="473" 
d="M202 820l-88 113h40l82 -88l82 88h42l-88 -113h-70zM217 0v708h-212v42h463v-42h-212v-708h-39z" />
    <glyph glyph-name="tcaron" unicode="&#x165;" horiz-adv-x="338" 
d="M258 521l44 218h64l-80 -218h-28zM149 0v432h-100v38h100v167h40v-167h100v-38h-100v-432h-40z" />
    <glyph glyph-name="Uring" unicode="&#x16e;" horiz-adv-x="650" 
d="M325 820q-34 0 -57.5 23.5t-23.5 56.5q0 34 23.5 57.5t57.5 23.5q33 0 57 -23.5t24 -57.5q0 -33 -24 -56.5t-57 -23.5zM325 844q22 0 38.5 16.5t16.5 39.5t-16.5 40t-38.5 17q-24 0 -39.5 -16.5t-15.5 -40.5q0 -23 16 -39.5t39 -16.5zM325 -10q-98 0 -169 64.5t-71 148.5
v547h43v-547q0 -69 56.5 -120t140.5 -51q85 0 141 51t56 120v547h43v-547q0 -85 -70 -149t-170 -64z" />
    <glyph glyph-name="uring" unicode="&#x16f;" horiz-adv-x="517" 
d="M258 540q-33 0 -56.5 23.5t-23.5 56.5q0 34 23.5 57.5t56.5 23.5t57.5 -24t24.5 -57t-24.5 -56.5t-57.5 -23.5zM258 564q22 0 39 17t17 39q0 23 -16.5 40t-39.5 17q-24 0 -39 -16.5t-15 -40.5q0 -23 16 -39.5t38 -16.5zM258 -10q-76 0 -129.5 52.5t-53.5 126.5v301h40
v-301q0 -55 43.5 -97.5t99.5 -42.5q58 0 101 42t43 98v301h40v-301q0 -74 -54 -126.5t-130 -52.5z" />
    <glyph glyph-name="Uhungarumlaut" unicode="&#x170;" horiz-adv-x="650" 
d="M250 820l114 177h60l-154 -177h-20zM380 820l114 177h60l-154 -177h-20zM325 -10q-98 0 -169 64.5t-71 148.5v547h43v-547q0 -69 56.5 -120t140.5 -51q85 0 141 51t56 120v547h43v-547q0 -85 -70 -149t-170 -64z" />
    <glyph glyph-name="uhungarumlaut" unicode="&#x171;" horiz-adv-x="517" 
d="M183 540l115 177h60l-154 -177h-21zM313 540l115 177h60l-154 -177h-21zM258 -10q-76 0 -129.5 52.5t-53.5 126.5v301h40v-301q0 -55 43.5 -97.5t99.5 -42.5q58 0 101 42t43 98v301h40v-301q0 -74 -54 -126.5t-130 -52.5z" />
    <glyph glyph-name="Ydieresis" unicode="&#x178;" horiz-adv-x="559" 
d="M192 820q-17 0 -27.5 10.5t-10.5 26.5t11 26.5t27 10.5q15 0 25.5 -10.5t10.5 -26.5t-10.5 -26.5t-25.5 -10.5zM368 820q-16 0 -26 10t-10 27q0 16 10 26.5t26 10.5t27 -10.5t11 -26.5t-10.5 -26.5t-27.5 -10.5zM258 0v370l-253 380h51l223 -336l225 336h51l-254 -380
v-370h-43z" />
    <glyph glyph-name="Zacute" unicode="&#x179;" horiz-adv-x="628" 
d="M302 820l115 177h60l-154 -177h-21zM42 0l455 708h-446v42h523l-457 -708h470v-42h-545z" />
    <glyph glyph-name="zacute" unicode="&#x17a;" horiz-adv-x="487" 
d="M236 540l114 177h60l-154 -177h-20zM33 0l330 433h-309v37h384l-328 -434h346v-36h-423z" />
    <glyph glyph-name="Zdotaccent" unicode="&#x17b;" horiz-adv-x="628" 
d="M312 820q-15 0 -25.5 10.5t-10.5 26.5t10.5 26.5t25.5 10.5q16 0 27 -10.5t11 -26.5t-11 -26.5t-27 -10.5zM42 0l455 708h-446v42h523l-457 -708h470v-42h-545z" />
    <glyph glyph-name="zdotaccent" unicode="&#x17c;" horiz-adv-x="487" 
d="M246 540q-16 0 -26.5 10.5t-10.5 26.5t10.5 26.5t26.5 10.5t26.5 -10.5t10.5 -26.5t-10.5 -26.5t-26.5 -10.5zM33 0l330 433h-309v37h384l-328 -434h346v-36h-423z" />
    <glyph glyph-name="Zcaron" unicode="&#x17d;" horiz-adv-x="628" 
d="M278 820l-88 113h40l82 -88l82 88h42l-88 -113h-70zM42 0l455 708h-446v42h523l-457 -708h470v-42h-545z" />
    <glyph glyph-name="zcaron" unicode="&#x17e;" horiz-adv-x="487" 
d="M211 540l-88 113h40l82 -88l83 88h41l-88 -113h-70zM33 0l330 433h-309v37h384l-328 -434h346v-36h-423z" />
    <glyph glyph-name="florin" unicode="&#x192;" horiz-adv-x="542" 
d="M40 -165v40q69 4 119 47.5t62 108.5l47 252h-112v39h119l19 102q10 49 49 81t89 32h70v-39h-70q-36 0 -64 -23t-35 -58l-18 -95h132v-39h-139l-49 -259q-14 -79 -75 -131.5t-144 -57.5z" />
    <glyph glyph-name="circumflex" unicode="&#x2c6;" horiz-adv-x="0" 
d="M-133 563l88 113h70l88 -113h-41l-83 88l-82 -88h-40z" />
    <glyph glyph-name="caron" unicode="&#x2c7;" horiz-adv-x="0" 
d="M-55 563l-88 113h40l82 -88l83 88h41l-88 -113h-70z" />
    <glyph glyph-name="breve" unicode="&#x2d8;" horiz-adv-x="0" 
d="M-10 645q-60 0 -97.5 27.5t-37.5 87.5h35q0 -80 100 -80t100 80h35q0 -60 -37.5 -87.5t-97.5 -27.5z" />
    <glyph glyph-name="dotaccent" unicode="&#x2d9;" horiz-adv-x="0" 
d="M0 562q-16 0 -26.5 10.5t-10.5 26.5t10.5 26.5t26.5 10.5t26.5 -10.5t10.5 -26.5t-10.5 -26.5t-26.5 -10.5z" />
    <glyph glyph-name="ring" unicode="&#x2da;" horiz-adv-x="0" 
d="M-10 556q-34 0 -57.5 23.5t-23.5 56.5q0 34 23.5 57.5t57.5 23.5q33 0 57 -23.5t24 -57.5q0 -33 -24 -56.5t-57 -23.5zM-10 580q22 0 38.5 16.5t16.5 39.5t-16.5 40t-38.5 17q-24 0 -39.5 -16.5t-15.5 -40.5q0 -23 16 -39.5t39 -16.5z" />
    <glyph glyph-name="ogonek" unicode="&#x2db;" horiz-adv-x="0" 
d="M11 -196q-22 0 -41.5 3.5t-39 11t-31 24t-11.5 39.5q0 36 32.5 74.5t69.5 58.5l40 -5q-24 0 -59.5 -46.5t-35.5 -79.5q0 -27 23.5 -39.5t52.5 -12.5v-28z" />
    <glyph glyph-name="tilde" unicode="&#x2dc;" horiz-adv-x="0" 
d="M67 568q-29 0 -81.5 32.5t-73.5 32.5q-34 0 -61 -63l-35 15q43 86 96 86q29 0 81.5 -32.5t73.5 -32.5q31 0 61 63l36 -14q-39 -87 -97 -87z" />
    <glyph glyph-name="hungarumlaut" unicode="&#x2dd;" horiz-adv-x="0" 
d="M-91 573l115 177h60l-154 -177h-21zM39 573l115 177h60l-154 -177h-21z" />
    <glyph glyph-name="uni0394" unicode="&#x394;" horiz-adv-x="641" 
d="M45 0l276 477l275 -477h-551zM114 40h413l-206 357z" />
    <glyph glyph-name="uni03A9" unicode="&#x3a9;" horiz-adv-x="893" 
d="M70 0v38h154q-154 147 -154 328q0 163 110.5 278.5t266.5 115.5t266.5 -115.5t110.5 -278.5q0 -181 -154 -328h154v-38h-217l-10 40q87 47 137.5 135.5t50.5 190.5q0 147 -99 251.5t-239 104.5t-239.5 -105t-99.5 -251q0 -101 51 -190t138 -136l-10 -40h-217z" />
    <glyph glyph-name="uni03BC" unicode="&#x3bc;" horiz-adv-x="544" 
d="M105 -205v675h37v-307q0 -57 38 -96t92 -39t92.5 39t38.5 96v307h37v-470h-37v48q-68 -59 -131 -59t-130 59v-253h-37z" />
    <glyph glyph-name="pi" unicode="&#x3c0;" horiz-adv-x="602" 
d="M528 -10q-49 6 -81.5 43t-32.5 87v311h-229v-431h-37v431h-73v40h453v-40h-77v-311q0 -34 21.5 -59.5t55.5 -30.5v-40z" />
    <glyph glyph-name="endash" unicode="&#x2013;" horiz-adv-x="634" 
d="M90 218v40h454v-40h-454z" />
    <glyph glyph-name="emdash" unicode="&#x2014;" horiz-adv-x="768" 
d="M0 218v40h768v-40h-768z" />
    <glyph glyph-name="quoteleft" unicode="&#x2018;" horiz-adv-x="193" 
d="M45 512l80 238h23l-50 -238h-53z" />
    <glyph glyph-name="quoteright" unicode="&#x2019;" horiz-adv-x="193" 
d="M45 512l50 238h53l-80 -238h-23z" />
    <glyph glyph-name="quotesinglbase" unicode="&#x201a;" horiz-adv-x="197" 
d="M45 -117l44 218h64l-80 -218h-28z" />
    <glyph glyph-name="quotedblleft" unicode="&#x201c;" horiz-adv-x="336" 
d="M45 512l80 238h23l-50 -238h-53zM189 512l80 238h23l-50 -238h-53z" />
    <glyph glyph-name="quotedblright" unicode="&#x201d;" horiz-adv-x="336" 
d="M45 512l50 238h53l-80 -238h-23zM189 512l50 238h53l-80 -238h-23z" />
    <glyph glyph-name="quotedblbase" unicode="&#x201e;" horiz-adv-x="317" 
d="M45 -117l44 218h64l-80 -218h-28zM165 -117l44 218h64l-80 -218h-28z" />
    <glyph glyph-name="dagger" unicode="&#x2020;" horiz-adv-x="418" 
d="M184 -80v498h-134v42h134v290h44v-290h140v-42h-140v-498h-44z" />
    <glyph glyph-name="daggerdbl" unicode="&#x2021;" horiz-adv-x="418" 
d="M184 -80v241h-134v41h134v266h-134v42h134v240h44v-240h140v-42h-140v-266h140v-41h-140v-241h-44z" />
    <glyph glyph-name="bullet" unicode="&#x2022;" horiz-adv-x="314" 
d="M157 157q-34 0 -58 23.5t-24 58.5q0 34 24 57.5t58 23.5q35 0 58.5 -23.5t23.5 -57.5q0 -35 -23.5 -58.5t-58.5 -23.5z" />
    <glyph glyph-name="ellipsis" unicode="&#x2026;" horiz-adv-x="822" 
d="M137 -10q-18 0 -30 12t-12 30q0 17 12 29.5t30 12.5q17 0 29.5 -12.5t12.5 -29.5q0 -18 -12.5 -30t-29.5 -12zM411 -10q-18 0 -30 12t-12 30q0 17 12 29.5t30 12.5q17 0 29.5 -12.5t12.5 -29.5q0 -18 -12.5 -30t-29.5 -12zM685 -10q-18 0 -30 12t-12 30q0 17 12 29.5
t30 12.5q17 0 29.5 -12.5t12.5 -29.5q0 -18 -12.5 -30t-29.5 -12z" />
    <glyph glyph-name="perthousand" unicode="&#x2030;" horiz-adv-x="1008" 
d="M217 485q-57 0 -97 40.5t-40 97.5q0 56 40 96.5t97 40.5q56 0 96 -40.5t40 -96.5q0 -57 -40 -97.5t-96 -40.5zM93 0l472 750h49l-472 -750h-49zM217 519q43 0 73 30.5t30 73.5t-30 73.5t-73 30.5t-73.5 -30.5t-30.5 -73.5t30.5 -73.5t73.5 -30.5zM491 -10
q-57 0 -97.5 40.5t-40.5 96.5q0 57 40.5 97.5t97.5 40.5q56 0 96 -40.5t40 -97.5q0 -56 -40 -96.5t-96 -40.5zM832 -10q-57 0 -97.5 40.5t-40.5 96.5q0 57 40.5 97.5t97.5 40.5q56 0 96 -40.5t40 -97.5q0 -56 -40 -96.5t-96 -40.5zM491 23q42 0 72.5 30t30.5 74t-30.5 74
t-72.5 30q-43 0 -74 -30t-31 -74t31 -74t74 -30zM832 23q41 0 72 30.5t31 73.5t-31 73.5t-72 30.5q-43 0 -74 -30t-31 -74t31 -74t74 -30z" />
    <glyph glyph-name="guilsinglleft" unicode="&#x2039;" horiz-adv-x="255" 
d="M186 104l-141 136l141 126l24 -26l-114 -101l115 -110z" />
    <glyph glyph-name="guilsinglright" unicode="&#x203a;" horiz-adv-x="255" 
d="M69 104l-24 25l114 110l-113 101l23 26l142 -126z" />
    <glyph glyph-name="fraction" unicode="&#x2044;" horiz-adv-x="358" 
d="M-40 -10l401 770h38l-401 -770h-38z" />
    <glyph glyph-name="Euro" unicode="&#x20ac;" horiz-adv-x="703" 
d="M494 0q-128 0 -229 76t-141 201h-64v39h55q-5 41 -5 65t5 65h-55v39h64q40 121 140.5 193t229.5 72h149v-39h-149q-110 0 -197.5 -59t-132.5 -167h414v-39h-423q-6 -36 -6 -65t6 -65h423v-39h-414q44 -111 132 -174.5t198 -63.5h149v-39h-149z" />
    <glyph glyph-name="trademark" unicode="&#x2122;" horiz-adv-x="713" 
d="M139 425v285h-89v40h220v-40h-90v-285h-41zM329 425v325h13l149 -209l148 209h14v-325h-40v222l-122 -172l-122 172v-222h-40z" />
    <glyph glyph-name="product" unicode="&#x220f;" horiz-adv-x="474" 
d="M70 0v750h334v-750h-35v715h-264v-715h-35z" />
    <glyph glyph-name="summation" unicode="&#x2211;" horiz-adv-x="798" 
d="M80 0l395 381l-395 369h643v-39h-548l355 -331l-355 -341h548v-39h-643z" />
    <glyph glyph-name="minus" unicode="&#x2212;" horiz-adv-x="558" 
d="M70 223v30h418v-30h-418z" />
    <glyph glyph-name="radical" unicode="&#x221a;" horiz-adv-x="907" 
d="M417 -156l-171 478h-236v39h263l168 -468l413 857h43l-437 -906h-43z" />
    <glyph glyph-name="infinity" unicode="&#x221e;" horiz-adv-x="1184" 
d="M299 -10q-99 0 -169 71.5t-70 172.5t70 172.5t169 71.5q142 0 270 -173l23 -32l23 32q128 173 271 173q98 0 168 -71.5t70 -172.5t-70 -172.5t-168 -71.5q-141 0 -271 173l-23 31l-23 -31q-128 -173 -270 -173zM299 29q76 0 146.5 60t124.5 145q-54 85 -124.5 145
t-146.5 60q-83 0 -141.5 -60t-58.5 -145t58.5 -145t141.5 -60zM886 29q82 0 140.5 60t58.5 145t-58.5 145t-140.5 60q-77 0 -147 -59.5t-124 -145.5q54 -86 124 -145.5t147 -59.5z" />
    <glyph glyph-name="approxequal" unicode="&#x2248;" horiz-adv-x="488" 
d="M321 263q-29 0 -81.5 32.5t-73.5 32.5q-34 0 -61 -63l-35 15q13 25 23.5 40.5t30.5 30.5t42 15q29 0 81.5 -32.5t73.5 -32.5q19 0 35 20.5t26 42.5l36 -14q-39 -87 -97 -87zM321 114q-29 0 -81.5 32.5t-73.5 32.5q-34 0 -61 -63l-35 15q13 25 23.5 40.5t30.5 30.5t42 15
q29 0 81.5 -32.5t73.5 -32.5q19 0 35 20.5t26 42.5l36 -14q-39 -87 -97 -87z" />
    <glyph glyph-name="notequal" unicode="&#x2260;" horiz-adv-x="575" 
d="M162 -10l67 129h-159v34h177l85 163h-262v34h279l68 130h39l-68 -130h117v-34h-135l-84 -163h219v-34h-237l-68 -129h-38z" />
    <glyph glyph-name="uniFB01" unicode="&#xfb01;" horiz-adv-x="597" 
d="M136 0v432h-86v38h86v164q0 55 33.5 92.5t90.5 37.5q29 0 43 -14v-43q-11 15 -45 15q-38 0 -60 -25t-22 -63v-164h127v-38h-127v-432h-40zM460 562q-16 0 -26.5 10.5t-10.5 26.5t10.5 26.5t26.5 10.5t26.5 -10.5t10.5 -26.5t-10.5 -26.5t-26.5 -10.5zM439 0v470h43v-470
h-43z" />
    <glyph glyph-name="uniFB02" unicode="&#xfb02;" horiz-adv-x="573" 
d="M136 0v432h-86v38h86v164q0 55 33.5 92.5t90.5 37.5q29 0 43 -14v-43q-11 15 -45 15q-38 0 -60 -25t-22 -63v-164h127v-38h-127v-432h-40zM428 0v750h40v-750h-40z" />
    <glyph glyph-name="_157" 
d="M332 563v30h305v-30h-305z" />
    <glyph glyph-name="_158" horiz-adv-x="0" 
d="M-162 354v30h304v-30h-304z" />
    <glyph glyph-name="_159" horiz-adv-x="250" 
d="M37 278l-15 26l186 109l15 -25z" />
    <glyph glyph-name="_256" horiz-adv-x="916" 
d="M458 0q-157 0 -267.5 110.5t-110.5 267.5t110.5 267.5t267.5 110.5t267.5 -110.5t110.5 -267.5t-110.5 -267.5t-267.5 -110.5zM458 35q142 0 242.5 100.5t100.5 242.5t-100.5 242.5t-242.5 100.5t-242.5 -100.5t-100.5 -242.5t100.5 -242.5t242.5 -100.5zM261 230
q-7 0 -12 5t-5 12v262q0 7 5 12.5t12 5.5t12.5 -5.5t5.5 -12.5v-262q0 -17 -18 -17zM458 230q-17 0 -17 17v262q0 18 17 18t17 -18v-262q0 -17 -17 -17zM643 235l-132 131q-11 13 0 24l132 131q4 5 13 5h2l4 -2h2l3 -3q13 -11 0 -24l-119 -119l119 -119q13 -13 0 -24
q-13 -13 -24 0zM327 361q-17 0 -17 17t17 17h65q18 0 18 -17t-18 -17h-65z" />
    </font>
</defs>
</svg>
